<?xml version="1.0" standalone="no"?>
<!DOCTYPE svg PUBLIC "-//W3C//DTD SVG 20010904//EN"
 "http://www.w3.org/TR/2001/REC-SVG-20010904/DTD/svg10.dtd">
<svg version="1.0" xmlns="http://www.w3.org/2000/svg"
 width="640.000000pt" height="640.000000pt" viewBox="0 0 640.000000 640.000000"
 preserveAspectRatio="xMidYMid meet">

<g transform="translate(0.000000,640.000000) scale(0.100000,-0.100000)"
fill="#000000" stroke="none">
<path d="M5010 5846 c0 -11 -14 -14 -57 -14 -42 0 -92 -11 -178 -40 -66 -22
-135 -43 -154 -47 -19 -4 -40 -13 -47 -20 -7 -7 -45 -15 -83 -19 -39 -4 -71
-11 -71 -16 0 -5 -11 -12 -25 -16 -14 -3 -25 -10 -25 -15 0 -5 -9 -9 -20 -9
-11 0 -20 -4 -20 -10 0 -5 -16 -10 -35 -10 -19 0 -35 -4 -35 -9 0 -4 -27 -14
-60 -20 -33 -7 -60 -16 -60 -22 0 -5 -7 -9 -16 -9 -18 0 -57 -38 -67 -64 -4
-9 -20 -22 -37 -27 -17 -6 -30 -18 -30 -28 0 -14 -75 -72 -114 -87 -9 -3 -18
-14 -21 -24 -3 -10 -20 -32 -37 -49 -28 -27 -29 -31 -12 -32 12 0 4 -7 -22
-20 -44 -20 -76 -49 -55 -49 7 0 10 -4 7 -9 -4 -5 -1 -11 5 -13 6 -2 -10 -15
-36 -28 -36 -19 -51 -34 -60 -60 -6 -19 -23 -52 -38 -74 -30 -44 -27 -59 10
-50 19 5 24 3 21 -7 -3 -8 -13 -13 -22 -13 -9 1 -16 -4 -16 -12 0 -8 -8 -14
-17 -15 -16 0 -16 -1 0 -8 18 -6 18 -8 2 -21 -21 -17 -55 -83 -55 -106 0 -9
11 -32 26 -51 14 -18 23 -37 19 -42 -3 -5 -1 -12 5 -16 5 -3 10 -18 10 -32 0
-34 26 -75 58 -94 22 -13 33 -34 60 -125 18 -61 37 -135 42 -165 15 -88 40
-199 49 -217 4 -9 24 -51 43 -92 37 -78 100 -203 128 -255 8 -16 30 -50 48
-74 18 -24 32 -49 32 -56 0 -7 -18 -19 -40 -28 -52 -20 -51 -38 4 -96 97 -101
156 -168 156 -178 0 -6 9 -13 20 -16 23 -6 27 -35 5 -43 -8 -4 -15 -10 -15
-15 0 -12 37 -11 45 1 8 13 25 3 25 -15 0 -7 -20 -20 -45 -28 -39 -14 -45 -14
-45 -1 0 8 -2 14 -4 14 -6 0 -76 -62 -90 -79 -39 -47 -97 -101 -109 -101 -9 0
-17 -4 -19 -9 -1 -5 -23 -31 -48 -58 -25 -26 -62 -72 -82 -101 -51 -75 -128
-154 -144 -148 -7 3 -18 -1 -24 -9 -6 -8 -17 -12 -24 -9 -17 7 -40 -22 -32
-41 6 -16 -73 -100 -103 -110 -10 -3 -27 -19 -39 -35 -26 -35 -14 -39 41 -16
36 14 237 60 240 55 18 -34 33 -48 87 -80 39 -24 71 -37 82 -33 32 10 19 -5
-18 -21 -29 -12 -35 -19 -31 -35 3 -11 1 -20 -5 -20 -6 0 -8 -7 -4 -15 3 -10
-1 -15 -13 -15 -20 0 -36 -25 -32 -50 2 -13 1 -13 -9 0 -8 13 -11 13 -19 1 -5
-7 -13 -11 -19 -7 -5 3 -16 -2 -23 -11 -12 -14 -12 -16 0 -9 10 7 12 3 6 -14
-5 -15 -3 -20 3 -16 6 3 13 2 17 -4 4 -7 13 -7 26 0 11 6 23 8 28 5 5 -3 11 0
13 6 5 16 95 13 113 -4 18 -19 118 -12 152 10 33 22 142 11 190 -18 21 -12 45
-28 53 -34 28 -22 150 -51 150 -36 0 4 18 7 40 6 36 0 45 -6 41 -28 0 -4 4 -7
10 -7 6 0 9 7 6 15 -5 11 2 13 36 9 23 -3 48 -6 55 -6 7 -1 11 -4 9 -7 -2 -3
-9 -21 -16 -38 -7 -18 -17 -33 -23 -33 -5 0 -6 -4 -3 -10 3 -5 1 -19 -6 -31
-9 -18 -13 -19 -21 -8 -7 10 -7 8 -3 -8 6 -20 3 -23 -25 -23 -18 0 -29 -4 -25
-10 10 -16 -17 -11 -37 7 -20 18 -37 11 -21 -9 16 -19 13 -68 -3 -68 -8 0 -14
3 -14 8 0 4 -10 18 -21 32 l-21 25 6 -25 c4 -19 0 -29 -15 -38 -15 -10 -17
-16 -9 -32 15 -28 13 -36 -18 -51 -54 -27 -120 -85 -153 -133 -36 -51 -67 -78
-81 -70 -4 3 -8 -2 -8 -11 0 -9 -31 -47 -70 -84 -38 -38 -70 -75 -70 -82 0
-16 -56 -79 -71 -79 -5 0 -9 6 -9 12 0 7 -7 2 -16 -10 -9 -13 -22 -21 -30 -18
-14 6 -83 -33 -84 -47 0 -5 5 -5 10 -2 6 3 10 0 10 -8 0 -9 -9 -12 -30 -9 -21
3 -30 10 -30 23 0 11 -4 19 -9 19 -5 0 -11 10 -13 23 -2 12 -9 22 -17 22 -8 0
-24 19 -35 42 -16 32 -27 42 -46 43 -24 1 -24 2 -3 10 15 6 20 15 16 29 -4 16
-1 21 15 21 20 0 39 16 30 25 -2 3 -19 1 -36 -4 -27 -8 -34 -7 -43 11 -9 18
-12 18 -27 5 -9 -9 -29 -18 -44 -22 -15 -4 -29 -13 -32 -20 -2 -7 -13 -11 -23
-9 -11 3 -27 -3 -37 -15 -11 -12 -26 -21 -34 -21 -10 0 -13 -8 -9 -27 6 -34
-26 -85 -48 -76 -8 3 -15 0 -15 -7 0 -7 -6 -6 -16 4 -20 20 -34 20 -34 1 0 -8
-6 -15 -12 -15 -9 0 -8 -4 2 -10 12 -8 11 -10 -6 -10 -11 0 -30 -14 -43 -30
-12 -17 -27 -28 -33 -24 -6 4 -8 3 -5 -3 4 -6 0 -13 -8 -17 -8 -3 -15 -12 -15
-21 0 -8 -4 -15 -10 -15 -5 0 -10 5 -10 10 0 20 -34 9 -62 -20 -28 -30 -58
-40 -58 -19 0 5 -4 7 -10 4 -5 -3 -10 -24 -10 -46 0 -37 -1 -38 -20 -27 -15 9
-19 20 -15 36 4 16 1 22 -11 22 -13 0 -14 3 -4 15 9 10 9 15 1 15 -6 0 -11 -4
-11 -10 0 -5 -18 -19 -40 -30 -26 -13 -40 -27 -40 -40 0 -19 -10 -24 -37 -21
-7 1 -13 -4 -13 -10 0 -7 -3 -9 -7 -6 -3 4 2 17 13 28 19 22 19 22 -8 17 -16
-3 -28 -1 -28 3 0 5 4 9 8 9 5 0 14 11 20 25 7 14 23 30 37 35 14 5 25 15 25
22 0 9 -3 9 -12 0 -18 -18 -38 -15 -38 6 0 18 39 62 54 62 4 0 21 9 36 20 28
20 29 24 21 99 -2 21 -14 5 -28 -37 -13 -37 -13 -37 -8 -4 2 17 1 32 -4 32 -4
0 -6 14 -3 31 3 20 13 34 28 41 13 6 24 15 24 20 0 4 3 7 8 7 17 -3 35 2 29 7
-7 7 60 64 75 64 17 0 3 -23 -16 -26 -28 -4 -32 -14 -5 -15 13 0 18 -3 12 -6
-7 -2 -13 -12 -13 -20 0 -10 6 -13 16 -9 9 3 18 6 20 6 3 0 3 4 -1 9 -3 6 12
9 38 7 35 -2 43 1 43 16 0 20 -7 23 -22 8 -15 -15 -54 0 -54 21 0 13 11 19 44
24 25 4 50 4 56 0 6 -4 20 1 30 10 18 16 103 43 160 50 14 2 27 4 30 5 8 4 24
7 40 9 8 0 30 10 49 22 25 15 31 23 22 32 -8 8 -14 8 -22 0 -8 -8 -16 -6 -31
9 -11 11 -26 17 -33 14 -8 -3 -16 0 -19 7 -2 7 -5 0 -5 -15 -1 -25 -5 -28 -36
-28 -26 0 -35 4 -35 16 0 13 -7 15 -37 10 -21 -3 -51 -7 -68 -9 -16 -2 -37 -7
-46 -11 -13 -5 -18 1 -24 26 -9 38 -7 69 5 82 5 5 6 14 4 21 -11 28 4 30 231
39 66 2 134 9 150 14 17 5 45 7 63 4 19 -2 47 3 68 13 20 9 39 13 42 9 4 -3 1
-9 -6 -11 -10 -4 -8 -9 6 -18 24 -18 91 2 85 25 -3 11 0 10 10 -2 15 -19 37
-24 37 -10 0 5 18 7 40 6 24 -1 46 4 55 12 7 8 17 14 21 14 4 0 22 11 41 26
18 14 38 22 43 19 14 -9 160 16 160 26 0 5 -7 9 -15 9 -19 0 -19 5 1 35 12 19
18 22 29 12 7 -6 11 -17 8 -23 -8 -21 16 -25 27 -5 5 11 10 24 9 28 -5 28 2
35 31 30 18 -4 30 -2 30 4 0 6 -4 7 -10 4 -5 -3 -10 -2 -10 3 0 5 -11 12 -24
14 -18 4 -27 -1 -35 -16 -9 -19 -10 -19 -8 -2 1 10 -4 21 -10 23 -8 3 -13 -4
-13 -16 0 -23 -18 -28 -26 -7 -3 8 -15 11 -30 8 -25 -5 -31 -16 -14 -27 16
-10 0 -27 -21 -22 -10 3 -20 0 -23 -7 -3 -6 -3 -1 -1 11 7 28 -6 35 -71 38
-42 1 -54 -2 -54 -13 0 -13 -2 -13 -17 0 -10 9 -33 15 -51 13 -18 -1 -35 2
-38 7 -3 5 -15 1 -26 -8 -16 -15 -21 -16 -28 -5 -4 8 -15 11 -24 8 -9 -4 -19
1 -25 11 -5 9 -12 16 -15 15 -16 -7 -36 -1 -36 10 0 7 -6 22 -14 32 -12 17
-16 17 -31 5 -14 -12 -18 -12 -25 0 -5 8 -12 11 -16 7 -10 -10 15 -35 39 -39
16 -2 21 -9 20 -26 -2 -13 1 -21 7 -17 6 3 10 2 10 -4 0 -5 -18 -8 -40 -6 -28
3 -40 0 -40 -9 0 -8 -7 -19 -15 -26 -11 -9 -15 -9 -15 -1 0 7 -4 9 -10 6 -5
-3 -10 3 -10 15 0 30 -48 47 -66 23 -7 -10 -14 -15 -14 -11 0 4 -12 0 -27 -7
-36 -19 -41 -5 -15 39 21 35 20 59 -2 101 -15 27 -53 32 -186 25 -23 -1 -23
-2 -5 -10 11 -5 37 -9 58 -9 20 -1 37 -5 37 -10 0 -21 -13 -41 -26 -41 -8 0
-17 -13 -20 -29 -6 -27 -8 -29 -35 -19 -16 6 -34 19 -40 30 -8 15 -14 17 -24
8 -7 -6 -25 -8 -39 -4 -16 4 -26 2 -26 -5 0 -19 -17 -12 -17 7 0 25 25 51 46
45 17 -4 38 12 40 32 1 6 13 13 27 17 14 4 31 10 37 15 15 10 142 9 180 -2 17
-5 27 -3 27 3 0 10 -23 17 -95 27 -16 2 -48 9 -70 14 -22 6 -57 11 -78 11 -33
0 -39 -4 -48 -30 -12 -33 -16 -35 -41 -16 -25 18 -22 34 7 48 29 13 31 21 10
38 -8 7 -15 16 -15 21 0 17 -35 44 -53 41 -11 -2 -15 1 -11 11 4 12 -24 35
-30 25 -26 -44 -40 -59 -52 -54 -9 3 -14 -1 -14 -14 0 -29 -29 -25 -40 5 -8
22 -13 24 -30 15 -24 -13 -25 -23 -3 -41 13 -11 17 -11 20 -1 8 23 23 1 23
-35 0 -35 -1 -36 -19 -19 -11 10 -24 15 -30 12 -15 -9 -33 31 -26 55 10 30
-26 21 -41 -9 l-12 -24 -20 22 -20 21 -16 -22 c-8 -12 -13 -26 -10 -31 9 -13
-6 -48 -21 -48 -7 0 -21 12 -30 27 -17 25 -18 26 -31 8 -15 -21 -19 -49 -5
-41 4 3 14 -14 21 -37 11 -34 15 -37 18 -19 2 12 10 22 18 22 8 0 14 5 14 10
0 6 5 10 10 10 6 0 10 -7 10 -15 0 -9 9 -15 25 -15 16 0 25 6 25 16 0 10 6 14
15 11 8 -4 17 -2 20 3 3 5 -5 11 -17 13 -14 3 -11 4 9 4 23 -1 32 -6 30 -16
-5 -31 20 -19 29 15 l9 36 22 -21 c13 -13 23 -16 25 -9 3 7 13 2 26 -12 23
-25 30 -46 10 -34 -7 4 -8 3 -4 -4 4 -7 13 -12 21 -12 7 0 12 -8 11 -17 -2
-10 -9 -18 -16 -18 -7 0 -15 -6 -17 -12 -3 -7 0 -13 6 -13 19 0 12 -29 -10
-40 -16 -9 -19 -17 -14 -42 5 -21 4 -28 -4 -24 -6 4 -11 30 -11 57 0 36 3 48
12 43 7 -5 9 -2 5 8 -3 9 -2 19 3 24 11 11 -19 48 -41 52 -9 1 -24 -7 -34 -18
-17 -19 -18 -25 -6 -53 7 -18 16 -45 19 -61 4 -25 2 -28 -12 -23 -10 4 -24 7
-32 7 -11 0 -13 14 -11 62 1 42 -2 63 -10 65 -9 3 -13 -9 -13 -40 0 -57 -14
-69 -63 -54 -20 7 -37 17 -37 24 0 6 -5 15 -11 19 -9 5 -10 -1 -5 -20 5 -21 3
-26 -13 -26 -10 0 -22 -7 -25 -16 -5 -13 -9 -14 -21 -4 -22 18 -18 30 8 30 18
0 19 2 7 10 -13 8 -12 10 3 10 12 0 17 6 15 18 -3 11 -12 16 -26 15 -19 -3
-21 0 -13 16 12 21 3 87 -13 99 -6 5 -21 12 -33 15 -30 7 -31 -21 -2 -31 23
-9 53 -68 39 -77 -12 -8 -40 34 -33 51 3 9 -2 14 -15 14 -12 0 -24 5 -28 11
-4 8 -13 4 -24 -12 -16 -20 -16 -25 -3 -45 9 -15 11 -24 4 -29 -19 -11 -13
-27 7 -16 9 5 17 21 17 37 0 15 6 29 13 31 6 3 12 0 12 -6 0 -6 11 -29 25 -51
14 -22 21 -40 15 -40 -5 0 -13 -14 -18 -32 -13 -50 -34 -57 -70 -20 -27 28
-30 37 -27 81 5 64 -10 85 -61 83 -21 -1 -60 -2 -87 -2 -38 -1 -54 -7 -81 -31
-24 -21 -37 -26 -42 -18 -4 8 4 22 22 36 16 13 36 29 44 37 8 7 23 16 32 19
10 4 18 12 18 20 0 36 164 129 256 146 85 16 111 14 168 -14 50 -24 53 -25
101 -10 28 8 71 15 97 15 25 0 59 6 75 14 15 8 41 19 56 25 15 6 30 19 34 28
10 29 63 87 96 105 47 26 340 297 446 411 19 20 43 37 53 37 10 0 32 10 49 22
17 13 45 22 69 23 27 1 46 8 60 23 17 18 18 22 5 22 -11 0 -14 6 -9 24 7 28
-16 38 -55 24 -14 -5 -28 -5 -34 1 -5 5 -24 7 -43 4 -37 -6 -87 13 -144 56
-19 14 -39 26 -43 26 -4 0 -11 5 -15 12 -10 16 -115 42 -146 36 -21 -4 -76
-58 -108 -107 -4 -6 -11 -6 -20 1 -9 8 -22 8 -45 -2 -18 -8 -33 -18 -33 -22 0
-4 -4 -14 -9 -22 -7 -10 -13 -11 -31 -1 -12 6 -46 13 -76 15 -76 4 -71 -17 10
-39 36 -10 67 -25 70 -33 5 -13 9 -13 29 -1 12 7 36 19 52 26 l30 12 -28 -25
c-15 -14 -24 -26 -20 -26 4 -1 13 -2 18 -4 6 -1 18 -3 28 -3 9 -1 17 -8 17
-15 0 -7 17 -21 38 -32 l37 -18 -27 -9 c-21 -7 -44 -4 -100 16 -40 13 -95 27
-123 31 -27 3 -84 11 -125 17 -65 9 -94 8 -205 -10 -88 -15 -132 -26 -137 -37
-13 -22 -31 -19 -25 4 4 15 -5 23 -40 36 -27 11 -56 15 -75 11 -23 -5 -36 -1
-54 17 -12 12 -28 23 -33 23 -6 1 -13 3 -16 4 -3 1 -17 3 -32 5 -16 1 -37 5
-48 9 -16 6 -17 6 -5 -3 34 -24 -5 -9 -45 18 -50 34 -78 45 -120 47 -64 4
-101 29 -53 36 44 6 135 -12 279 -55 93 -28 154 -41 170 -37 13 4 98 10 188
13 90 4 169 11 176 17 6 5 14 7 18 4 3 -3 13 -2 23 4 13 7 6 11 -32 16 -122
18 -174 49 -65 39 38 -3 61 -1 66 6 3 6 10 9 15 6 5 -3 28 -1 50 5 28 8 57 8
98 0 136 -24 172 -27 183 -14 5 7 6 15 1 18 -12 7 -71 19 -107 20 -19 1 -30 6
-30 16 0 22 -69 28 -134 12 -38 -10 -56 -11 -64 -3 -16 16 -37 13 -31 -4 5
-13 3 -13 -22 0 -16 8 -35 15 -41 15 -7 0 -13 5 -13 11 0 7 9 9 23 5 37 -12
117 -14 123 -5 3 5 0 9 -5 9 -18 0 -12 18 7 22 9 2 -15 10 -55 17 -59 11 -75
12 -88 1 -10 -8 -15 -9 -15 -1 0 6 -7 11 -15 11 -8 0 -15 -3 -15 -8 0 -14 -43
-34 -84 -38 -22 -2 -42 -8 -44 -14 -2 -5 -16 -7 -30 -4 -36 9 -52 24 -25 24
36 0 36 19 0 25 -44 9 -103 3 -100 -10 1 -5 17 -12 35 -15 27 -5 21 -7 -31
-12 -47 -5 -73 -3 -92 8 -16 8 -36 14 -46 14 -10 0 -36 9 -58 20 -39 19 -40
20 -8 14 27 -5 32 -3 27 10 -7 17 -46 28 -95 25 -19 -2 -40 0 -46 4 -6 4 -22
-2 -36 -13 -14 -11 -30 -20 -36 -20 -6 0 -11 -4 -11 -10 0 -5 -6 -7 -14 -4 -8
3 -17 1 -21 -5 -3 -6 -14 -11 -24 -11 -10 0 -37 -13 -59 -30 -23 -16 -50 -30
-61 -30 -24 0 -43 -23 -35 -44 5 -13 -1 -15 -34 -13 -22 1 -38 5 -35 10 2 4
10 7 17 7 8 0 20 8 27 17 12 15 12 16 -6 9 -11 -5 -29 -11 -40 -14 -26 -7 -46
-22 -40 -32 3 -4 -1 -8 -8 -7 -34 1 -57 -4 -57 -13 0 -5 7 -7 15 -4 8 4 15 1
15 -6 0 -7 -8 -10 -20 -7 -13 3 -49 -10 -98 -38 -42 -24 -90 -47 -107 -51 -16
-4 -52 -26 -80 -49 -27 -23 -72 -57 -100 -75 -36 -25 -45 -36 -33 -38 10 -2
42 13 71 32 57 38 85 48 48 18 -12 -9 -23 -24 -24 -33 -2 -9 -10 -28 -20 -42
-9 -15 -17 -28 -17 -31 0 -2 20 -12 45 -22 52 -19 57 -37 15 -54 -16 -7 -28
-17 -27 -24 1 -6 -6 -10 -16 -8 -21 4 -22 -11 -2 -28 12 -10 18 -10 30 0 8 7
15 19 15 26 0 8 11 14 26 14 14 0 34 5 45 11 15 7 24 7 35 -2 11 -9 14 -8 14
4 0 10 16 17 58 22 80 10 159 11 168 2 11 -11 -23 -77 -40 -77 -8 0 -27 -10
-43 -23 -15 -13 -36 -26 -46 -30 -9 -3 -17 -13 -17 -22 0 -18 -40 -21 -57 -4
-17 17 -33 1 -33 -32 0 -25 -4 -29 -29 -29 -17 0 -32 4 -35 9 -5 7 -52 22 -81
25 -5 1 -32 12 -59 24 -34 17 -52 20 -59 13 -6 -6 -26 -11 -44 -11 -33 0 -33
1 -16 19 24 25 93 36 93 15 0 -10 7 -14 17 -12 10 2 17 10 16 16 -2 7 1 12 5
12 11 0 2 59 -10 66 -6 4 -7 -2 -3 -16 7 -22 6 -23 -49 -18 -43 4 -53 2 -46
-8 13 -15 -17 -29 -34 -15 -15 12 -68 2 -59 -12 4 -6 0 -8 -11 -4 -23 9 -71
-16 -123 -64 -24 -22 -49 -39 -57 -39 -9 0 -31 -14 -51 -31 -30 -27 -48 -33
-108 -38 -4 -1 -21 -23 -38 -51 -17 -27 -44 -59 -60 -71 -27 -19 -38 -39 -21
-39 4 0 44 30 90 66 51 41 88 64 98 60 8 -3 17 1 20 8 8 21 36 8 66 -31 30
-38 30 -51 2 -129 -17 -49 -65 -80 -96 -63 -21 11 -58 3 -58 -13 0 -5 -6 -8
-14 -5 -9 4 -36 -16 -70 -50 -45 -46 -56 -63 -56 -90 0 -40 14 -43 34 -5 8 15
15 23 16 18 0 -5 7 -3 15 4 8 7 13 15 11 19 -2 3 14 7 35 8 21 2 39 -2 39 -7
0 -6 -4 -10 -9 -10 -26 0 -111 -106 -111 -137 0 -7 9 -13 20 -13 18 0 20 -5
14 -37 -7 -48 14 -99 52 -124 21 -14 24 -19 12 -19 -10 0 -18 -5 -18 -11 0 -6
9 -9 20 -6 13 3 20 0 20 -10 0 -10 6 -12 19 -8 11 3 22 1 26 -5 4 -7 23 -9 51
-5 30 4 44 2 44 -6 0 -6 9 -9 19 -6 14 3 18 1 14 -9 -3 -8 1 -14 10 -14 9 0
23 -3 33 -7 14 -5 16 -3 11 11 -6 15 0 17 51 16 31 -1 95 4 142 11 96 13 101
13 190 9 36 -1 80 1 98 5 29 7 34 5 39 -14 3 -11 10 -21 15 -21 7 0 8 -14 3
-38 -4 -20 -8 -46 -8 -57 -4 -43 -117 -203 -117 -165 0 6 -5 10 -11 10 -6 0
-8 -7 -5 -16 4 -12 -20 -42 -85 -105 -89 -88 -118 -106 -114 -72 3 30 16 53
31 53 8 0 14 7 14 15 0 8 5 15 10 15 6 0 10 4 10 10 0 5 -15 1 -33 -9 -17 -10
-32 -25 -31 -33 1 -9 -9 -14 -32 -14 -19 0 -34 3 -34 8 0 12 39 30 50 23 6 -3
10 1 10 9 0 9 5 16 11 16 28 0 150 113 152 142 1 11 11 25 22 30 12 5 26 17
32 27 10 15 7 17 -21 18 -42 1 -72 7 -129 27 -55 18 -77 20 -77 6 0 -5 -17
-10 -37 -10 -35 -1 -36 -2 -19 -15 21 -16 13 -35 -15 -35 -10 0 -19 -4 -19
-10 0 -5 5 -10 10 -10 6 0 10 -6 10 -14 0 -16 21 -26 55 -26 13 0 26 -4 29 -9
9 -14 -25 -23 -40 -10 -18 15 -164 22 -164 8 0 -6 7 -9 15 -5 9 3 19 -3 25
-14 6 -11 8 -20 5 -20 -12 0 24 -30 37 -31 7 0 2 -5 -12 -11 l-25 -11 30 -6
c22 -5 31 -13 34 -31 1 -14 8 -28 13 -31 7 -4 6 -9 -1 -13 -6 -4 -14 0 -17 8
-3 9 -12 16 -20 16 -8 0 -11 6 -8 15 4 8 1 15 -5 15 -6 0 -11 -6 -11 -12 -1
-15 -49 -52 -57 -44 -3 3 2 8 11 12 9 3 16 10 16 15 0 13 -34 11 -47 -2 -15
-15 -68 6 -89 35 -11 16 -16 18 -23 8 -6 -10 -13 -11 -27 -3 -30 16 -106 27
-139 20 -16 -4 -46 -7 -65 -8 -19 -1 -47 -8 -63 -15 -15 -8 -27 -11 -27 -5 0
5 -8 9 -19 9 -10 0 -31 7 -47 15 -25 13 -31 12 -61 -6 l-33 -21 0 22 c0 12 -4
19 -8 16 -4 -3 -25 -1 -46 4 -46 10 -108 2 -103 -14 5 -15 78 -56 101 -56 12
0 16 5 12 15 -8 22 21 19 51 -4 13 -11 31 -17 39 -14 8 3 14 0 14 -6 0 -6 9
-11 20 -11 22 0 28 -25 8 -32 -19 -7 -38 2 -38 18 0 16 -16 19 -25 4 -3 -6
-27 -10 -52 -10 -35 0 -50 5 -66 22 l-20 23 5 -35 c7 -44 1 -60 -22 -60 -10 0
-20 -7 -24 -15 -3 -8 -17 -15 -32 -15 -24 0 -26 -3 -20 -30 6 -30 5 -30 -19
-14 -14 9 -25 20 -25 25 0 5 -7 9 -15 9 -18 0 -18 -1 -5 -34 7 -21 6 -26 -5
-26 -8 0 -15 -7 -15 -15 0 -12 -10 -14 -50 -10 -29 3 -50 1 -50 -5 0 -12 45
-24 59 -15 6 3 11 -1 11 -9 0 -9 -4 -16 -10 -16 -5 0 -10 -4 -10 -10 0 -5 8
-10 18 -10 10 0 22 -3 26 -7 14 -15 63 -10 87 8 14 10 17 17 9 16 -8 -1 -17 2
-20 7 -3 4 15 9 39 11 47 4 72 25 43 37 -9 4 -12 8 -7 9 6 1 15 3 20 4 6 2 19
4 30 5 l20 1 -20 9 c-11 4 -38 6 -60 3 l-40 -5 23 23 c19 21 25 22 43 11 18
-11 24 -11 40 4 10 9 19 22 19 28 0 6 -4 5 -9 -3 -6 -10 -10 -10 -16 -1 -4 6
-3 16 3 22 13 13 55 -9 49 -27 -3 -7 0 -18 6 -24 9 -9 9 -14 -1 -20 -7 -4 9
-8 39 -9 57 -1 68 -7 51 -24 -8 -8 -7 -15 6 -25 15 -13 13 -14 -20 -9 -36 4
-43 -1 -39 -26 0 -4 -6 -5 -15 -1 -14 5 -14 3 -3 -15 10 -16 16 -18 26 -10 7
5 10 15 7 20 -4 6 3 5 14 -1 13 -7 23 -7 27 -2 3 5 31 17 62 26 32 9 72 29 90
43 18 15 46 38 64 51 29 23 30 25 13 38 -16 12 -15 13 14 13 18 0 32 5 32 11
0 5 -4 8 -9 4 -5 -3 -13 0 -16 6 -5 6 -22 8 -46 4 -22 -4 -39 -3 -39 2 0 14
39 31 83 37 48 6 121 -20 113 -40 -4 -11 1 -13 19 -8 16 4 27 1 30 -7 4 -10
28 -14 88 -14 45 0 87 3 92 7 6 3 11 -8 12 -28 2 -19 -1 -34 -6 -34 -5 0 -13
-10 -17 -22 -3 -13 -15 -31 -25 -41 -21 -20 -24 -33 -10 -42 5 -3 17 5 25 17
9 12 16 18 16 12 0 -6 13 -9 30 -6 19 3 30 0 30 -8 0 -7 -8 -10 -20 -7 -11 3
-20 2 -20 -3 0 -14 -94 -54 -123 -51 -15 1 -27 -2 -27 -7 0 -6 -15 -14 -32
-17 -34 -8 -58 -22 -58 -35 0 -5 10 -6 21 -3 30 8 21 -18 -12 -34 -21 -12 -26
-10 -48 15 -14 16 -21 20 -17 9 3 -9 2 -17 -2 -18 -69 -7 -122 -4 -122 8 0 7
8 13 17 13 13 0 14 3 6 11 -9 9 -16 8 -27 -4 -9 -9 -16 -19 -16 -24 0 -4 -8
-13 -18 -20 -11 -6 -29 -31 -41 -55 -30 -60 -43 -81 -63 -96 -24 -18 -23 -35
1 -27 11 3 22 1 26 -5 3 -5 -2 -10 -12 -10 -20 0 -73 -44 -73 -61 0 -6 -9 -8
-21 -4 -16 5 -20 3 -17 -12 2 -13 -3 -17 -20 -16 -23 3 -32 -22 -11 -29 7 -2
3 -18 -10 -42 -12 -21 -19 -46 -16 -56 3 -9 -1 -23 -10 -30 -8 -7 -15 -9 -15
-6 0 19 -40 -19 -60 -57 -20 -39 -31 -47 -88 -68 -68 -26 -119 -75 -124 -120
-2 -19 3 -24 27 -29 31 -6 47 3 106 65 16 16 29 24 29 17 0 -10 4 -10 18 -2 9
6 31 19 47 29 31 19 59 17 49 -3 -3 -6 3 -1 13 11 10 12 38 31 63 42 25 11 56
34 68 50 12 17 29 31 37 31 8 0 25 12 39 26 15 17 55 36 111 55 62 19 105 41
146 73 33 25 62 46 65 46 3 0 25 14 49 30 24 17 48 30 53 30 5 0 20 8 33 18
29 22 67 33 74 22 3 -5 -1 -12 -8 -17 -7 -4 -17 -16 -20 -26 -6 -15 -3 -17 13
-12 16 5 20 2 20 -15 0 -17 -5 -21 -18 -18 -13 4 -25 -4 -38 -23 -10 -16 -22
-29 -26 -29 -5 0 -8 -7 -8 -16 0 -10 6 -14 15 -10 8 3 15 1 15 -4 0 -6 9 -10
20 -10 21 0 27 15 10 25 -13 8 -13 55 -1 55 5 0 12 -9 16 -19 6 -20 29 -34 55
-35 8 -1 16 -10 18 -21 2 -15 1 -17 -6 -6 -7 9 -11 10 -17 2 -4 -7 -2 -18 5
-25 6 -8 8 -26 4 -40 -5 -20 -2 -26 10 -26 18 0 21 -16 5 -26 -17 -10 -30 17
-24 49 3 17 1 26 -5 22 -6 -3 -10 -12 -10 -20 0 -14 -27 -29 -47 -26 -18 3
-16 -44 2 -62 13 -13 12 -17 -8 -31 -14 -10 -17 -16 -7 -15 30 3 65 -3 52 -8
-6 -2 -10 -8 -7 -12 2 -5 -2 -17 -11 -27 -14 -19 -14 -19 -12 1 2 15 -4 21
-23 23 -25 3 -27 5 -21 45 5 38 4 41 -11 28 -15 -12 -17 -11 -17 4 0 11 -5 15
-14 12 -8 -3 -17 1 -20 9 -4 10 -13 13 -31 8 -20 -5 -25 -3 -25 14 0 31 -67
43 -112 19 -30 -15 -59 -43 -52 -50 3 -2 -2 -7 -10 -10 -10 -4 -13 -1 -10 7 5
12 -9 14 -49 7 -4 0 -22 -16 -40 -34 -17 -18 -39 -31 -48 -29 -9 1 -23 -3 -31
-11 -7 -8 -37 -22 -66 -31 -29 -10 -57 -26 -62 -36 -6 -10 -22 -20 -37 -22
-16 -2 -27 -10 -29 -21 -3 -24 -10 -30 -34 -34 -13 -2 -20 3 -20 13 0 8 -5 12
-11 9 -6 -4 -8 -12 -6 -19 3 -7 -15 -11 -55 -12 -48 -1 -62 -5 -74 -23 -8 -11
-24 -21 -35 -21 -10 0 -29 -11 -41 -25 -23 -26 -40 -33 -36 -14 6 25 -19 18
-32 -8 l-14 -28 -4 24 c-3 17 -6 20 -12 11 -5 -7 -15 -10 -25 -6 -12 4 -14 10
-8 19 7 8 4 18 -9 30 -17 16 -18 13 -18 -93 l0 -110 164 0 c122 0 166 3 169
13 4 9 6 9 6 0 1 -10 30 -13 109 -13 64 0 102 4 93 9 -7 5 -11 15 -9 22 3 8
-2 19 -11 26 -12 9 -12 12 -3 13 19 0 39 -23 34 -39 -3 -8 0 -11 6 -8 5 4 15
0 22 -8 18 -22 712 -23 704 -1 -4 11 0 13 15 9 12 -3 21 -9 21 -14 0 -5 9 -9
20 -9 11 0 20 5 20 11 0 7 7 8 18 4 9 -4 35 -9 56 -11 31 -3 37 -1 28 8 -14
14 -16 32 -3 24 5 -3 12 1 15 10 9 22 8 24 -9 24 -8 0 -15 5 -15 11 0 6 -8 8
-19 4 -24 -7 -71 34 -71 63 0 25 94 130 128 143 14 5 22 12 19 16 -8 7 -67
-17 -67 -27 0 -11 -39 -20 -45 -10 -3 4 -13 6 -24 3 -23 -6 -38 25 -16 33 8 4
15 12 15 19 0 21 50 47 81 43 17 -3 26 0 22 6 -4 6 1 7 13 2 21 -8 24 -9 42
-7 21 2 3 21 -19 21 -16 0 -14 5 14 30 20 17 46 30 62 30 l26 0 -21 -30 c-23
-32 -16 -37 25 -18 14 6 25 19 25 30 0 10 5 18 10 18 6 0 10 -7 10 -15 0 -12
4 -13 25 -3 21 9 28 8 38 -4 14 -17 51 -33 42 -18 -3 6 2 10 12 10 17 1 17 1
0 15 -11 7 -25 11 -32 9 -7 -3 -16 -1 -20 5 -3 6 -15 11 -26 11 -17 0 -18 3
-9 20 6 11 20 20 30 20 25 0 26 17 3 23 -11 2 -8 4 7 4 62 0 78 6 118 41 67
58 103 85 107 80 3 -3 -11 -21 -32 -41 -20 -20 -33 -37 -28 -37 15 0 -44 -41
-75 -51 -29 -11 -37 -38 -9 -30 8 2 23 4 34 5 14 1 19 7 17 21 -3 16 -1 17 12
6 13 -11 18 -10 31 2 17 17 20 31 5 22 -5 -3 -10 -3 -10 2 0 12 20 39 20 28 0
-5 10 5 21 22 19 30 30 38 52 34 4 0 7 8 7 19 0 11 7 20 15 20 8 0 15 -4 15
-10 0 -5 12 -10 28 -11 21 0 18 -3 -17 -12 -57 -15 -70 -41 -17 -35 20 2 36 0
36 -4 0 -4 -6 -8 -12 -8 -7 0 -22 -7 -33 -16 -18 -14 -13 -15 62 -12 l83 3 -6
33 c-4 19 -2 32 4 32 13 0 23 -27 16 -45 -9 -23 10 -18 79 17 34 18 66 35 71
37 5 2 -9 -15 -31 -38 -23 -23 -51 -41 -63 -41 -12 0 -29 -4 -39 -9 -10 -6
-46 -13 -81 -16 -91 -8 -149 -25 -164 -46 -7 -10 -16 -16 -19 -13 -3 4 -13 -1
-23 -10 -12 -13 -19 -14 -30 -5 -9 8 -14 8 -14 1 0 -6 -14 -19 -30 -29 -23
-13 -30 -23 -26 -39 4 -14 -2 -28 -15 -40 -19 -17 -19 -19 -2 -25 16 -6 14 -8
-9 -18 -16 -6 -28 -16 -28 -23 0 -9 -3 -9 -12 0 -17 17 -45 15 -52 -3 -6 -15
-51 -21 -59 -7 -8 11 33 57 41 46 12 -17 28 -10 55 22 18 21 23 34 16 45 -6
10 -11 11 -16 3 -10 -15 -73 -47 -80 -41 -2 3 -16 -1 -31 -9 -24 -12 -27 -12
-30 1 -5 20 -9 19 -35 -7 -29 -29 -25 -62 6 -52 12 4 23 11 25 15 9 22 21 6
18 -21 -5 -40 -12 -46 -32 -26 -15 16 -18 16 -35 1 -9 -9 -15 -23 -12 -31 3
-8 1 -14 -5 -14 -6 0 -12 6 -15 13 -3 6 -3 -7 -2 -31 2 -24 0 -40 -6 -37 -5 4
-9 17 -9 31 0 33 -17 30 -18 -3 0 -16 -1 -43 -2 -62 -1 -35 15 -54 38 -46 6 2
12 0 12 -5 0 -6 -4 -10 -10 -10 -5 0 -10 -13 -10 -30 l0 -29 233 0 c165 0 227
3 214 10 -18 10 -18 11 0 25 24 18 37 18 29 -1 -6 -18 5 -20 22 -3 13 13 46
-8 36 -24 -5 -7 671 -6 801 1 6 0 47 -2 92 -5 74 -6 85 -4 110 16 56 44 127
105 142 124 9 11 37 40 64 64 26 25 47 54 47 64 0 12 4 16 11 12 11 -7 288
271 289 291 1 6 14 20 29 32 l28 22 53 -54 c33 -35 50 -61 46 -70 -3 -8 -1
-15 4 -15 6 0 10 5 10 12 0 8 6 7 16 -4 13 -12 14 -20 5 -37 -10 -17 -9 -20 4
-15 18 7 19 0 5 -27 -13 -24 -2 -25 16 -2 7 10 16 14 20 10 5 -4 3 -12 -5 -16
-7 -5 -11 -19 -9 -32 2 -20 8 -24 36 -21 17 1 32 -2 32 -8 0 -5 -7 -7 -16 -3
-12 4 -15 2 -12 -8 3 -8 15 -14 28 -14 31 -1 37 -21 9 -30 -15 -5 -26 -2 -34
9 -16 22 -32 20 -45 -4 -6 -11 -15 -18 -20 -15 -6 3 -15 -5 -21 -18 -12 -26
-57 -57 -83 -57 -9 0 -16 -7 -16 -15 0 -8 5 -15 10 -15 20 0 9 -29 -12 -32
-15 -2 -24 -11 -26 -25 -2 -13 -11 -28 -21 -35 -10 -7 -20 -30 -24 -50 l-6
-38 486 0 c451 0 487 1 500 18 14 16 14 16 9 0 -5 -17 10 -18 228 -18 l233 0
-1 98 c-1 81 2 101 16 116 17 16 17 16 12 -16 -3 -18 -10 -46 -15 -62 -5 -16
-6 -53 -3 -82 7 -53 7 -54 40 -54 31 0 34 3 34 31 0 17 4 28 10 24 6 -3 10
-17 10 -31 0 -23 3 -24 65 -24 60 0 65 2 71 24 3 15 20 31 40 41 19 9 34 20
34 25 0 6 10 10 23 10 20 0 20 -2 -8 -20 -28 -19 -43 -41 -44 -67 -1 -9 19
-13 68 -13 46 0 71 4 75 13 5 9 7 9 12 0 4 -9 122 -12 465 -13 l459 -1 0 1541
c0 847 -4 1540 -8 1540 -7 0 -32 -33 -44 -60 -3 -8 -5 3 -4 25 2 23 8 51 15
63 7 12 9 27 6 33 -4 5 0 20 9 33 19 29 17 2 22 364 l5 302 -30 31 c-17 17
-32 38 -33 47 0 9 -2 30 -3 45 -1 15 -7 33 -14 40 -14 14 -15 57 -1 57 6 0 10
7 10 15 0 16 43 31 59 20 8 -4 11 23 11 84 l0 90 -55 20 c-89 33 -104 26 -63
-30 16 -21 23 -46 25 -84 3 -91 -25 -84 -67 15 -18 44 -23 81 -27 180 l-6 126
32 31 c26 26 30 36 22 55 -5 14 -19 67 -31 119 -23 100 -45 156 -70 176 -11 9
-11 12 -2 13 8 0 5 12 -10 34 -32 47 -105 144 -145 190 -18 22 -33 44 -33 49
0 6 -15 28 -33 51 -19 23 -46 61 -62 86 -42 69 -203 220 -233 220 -4 0 -15 9
-25 20 -9 11 -26 20 -37 20 -11 0 -20 4 -20 9 0 5 -11 11 -25 13 -14 3 -25 1
-25 -6 0 -8 -2 -8 -8 0 -4 7 -16 13 -27 15 -13 3 -23 16 -29 42 -5 20 -13 37
-18 37 -5 0 -7 4 -4 9 4 5 -7 15 -24 23 -16 7 -30 16 -30 19 0 7 -85 69 -127
92 -40 21 -66 22 -39 2 27 -20 22 -19 -82 15 -104 34 -112 35 -112 16z m52
-18 c-11 -11 -32 -3 -32 12 0 4 9 6 21 3 13 -4 17 -9 11 -15z m199 -344 c36
-8 90 -30 121 -47 53 -31 168 -126 212 -176 11 -14 29 -33 39 -43 9 -10 17
-22 17 -26 0 -5 14 -21 30 -37 17 -16 30 -37 30 -46 0 -10 4 -19 9 -21 6 -1
11 -14 13 -28 2 -15 35 -55 81 -101 42 -42 77 -82 77 -89 0 -7 14 -28 30 -47
17 -18 30 -43 30 -53 0 -11 4 -28 9 -38 5 -9 13 -28 18 -42 6 -14 47 -99 92
-190 67 -135 85 -181 97 -250 8 -46 21 -94 29 -107 8 -12 15 -40 15 -62 0 -29
6 -44 21 -55 12 -8 18 -19 14 -26 -4 -7 -1 -16 6 -21 12 -7 12 -11 1 -18 -11
-7 -11 -15 2 -44 8 -20 11 -39 7 -42 -5 -2 -11 5 -14 17 -4 12 -9 19 -13 16
-12 -13 6 -55 28 -67 22 -11 22 -11 -4 -8 -31 5 -31 4 -22 -42 4 -19 12 -30
19 -27 8 3 11 -6 8 -30 -2 -19 1 -34 7 -34 18 0 11 -30 -7 -31 -14 0 -13 -2 4
-9 15 -6 21 -15 17 -25 -4 -8 1 -17 10 -21 14 -5 14 -7 0 -21 -13 -13 -19 -14
-39 -3 -17 9 -28 10 -37 3 -7 -6 -22 -13 -33 -16 -18 -4 -18 -5 3 -6 13 -1 22
-7 22 -16 0 -9 10 -20 23 -25 22 -9 22 -9 -3 -11 -17 -1 -20 -3 -7 -6 9 -2 17
-13 17 -23 0 -18 -26 -30 -71 -30 -27 0 -36 -25 -12 -34 8 -3 12 -2 9 3 -3 5
3 11 14 14 11 3 23 1 26 -5 3 -5 12 -7 20 -4 7 3 16 1 19 -4 4 -6 -1 -10 -9
-10 -8 0 -18 -5 -22 -12 -5 -8 0 -9 14 -6 12 4 22 2 22 -2 0 -5 8 -11 18 -14
9 -3 -2 -4 -25 -2 -32 3 -43 0 -43 -10 0 -8 5 -14 12 -14 6 0 9 -3 6 -6 -4 -3
-16 0 -28 6 -12 6 -23 10 -25 8 -9 -9 9 -47 24 -51 11 -3 9 -5 -7 -6 -19 -1
-21 -5 -16 -27 6 -23 5 -25 -12 -16 -14 7 -24 6 -38 -4 -17 -12 -17 -14 -3
-20 21 -8 22 -24 3 -24 -15 0 -30 27 -27 47 3 20 -66 55 -101 51 l-33 -3 38
-17 c20 -9 37 -23 36 -30 0 -10 -2 -10 -6 -1 -3 8 -14 11 -28 7 -13 -3 -34 0
-47 7 -12 7 -29 12 -35 11 -8 -2 -10 3 -7 13 3 8 2 15 -4 15 -6 0 -23 20 -38
44 -16 25 -31 43 -35 40 -4 -2 -10 5 -14 16 -3 11 -11 20 -16 20 -5 0 -9 7 -9
15 0 8 -13 24 -29 36 -18 13 -27 27 -24 39 9 32 -35 107 -89 152 -68 57 -103
78 -126 78 -11 0 -25 7 -32 15 -7 8 -24 15 -39 15 -14 0 -40 4 -56 8 -40 12
-105 3 -112 -15 -3 -8 7 -36 21 -64 15 -27 26 -59 24 -72 -2 -18 -10 -22 -44
-23 -61 -2 -93 -12 -122 -40 -41 -38 -82 -58 -95 -45 -6 6 -30 11 -53 11 -24
0 -54 4 -68 10 -16 6 -27 6 -31 0 -3 -5 -16 -9 -28 -9 -30 0 -119 -23 -135
-36 -7 -5 -19 -16 -27 -23 -13 -11 -15 -10 -15 10 0 13 7 36 15 52 8 15 15 54
15 87 0 32 4 61 10 64 10 6 8 115 -5 285 -6 78 -5 101 8 126 9 18 13 41 10 54
-4 16 0 27 11 36 10 7 15 17 12 22 -3 6 1 12 9 16 8 3 17 1 20 -4 3 -4 -1 -11
-7 -13 -7 -3 5 -6 27 -6 56 -2 117 -32 150 -75 19 -24 35 -36 53 -36 13 0 39
-9 56 -19 64 -39 266 -26 308 20 9 11 21 19 27 19 6 0 11 4 11 9 0 5 12 11 28
14 15 3 44 22 65 42 l37 36 -25 27 c-14 15 -25 29 -25 32 0 12 68 29 132 34
70 5 99 22 110 63 9 33 -50 52 -236 77 -63 8 -91 16 -94 26 -3 12 -2 13 6 1
10 -14 36 -6 27 9 -3 4 9 13 27 19 38 13 41 14 33 1 -8 -14 -1 -13 42 5 45 19
73 19 73 1 0 -12 5 -12 30 -3 36 14 40 31 5 25 -42 -8 -37 8 8 27 33 14 38 19
22 22 -11 3 -27 10 -35 17 -46 35 -79 44 -160 46 -111 2 -230 -10 -230 -22 0
-6 -13 -8 -30 -6 -19 3 -30 0 -30 -8 0 -7 -26 -14 -73 -19 -106 -9 -150 -21
-169 -45 -10 -12 -23 -18 -32 -14 -20 8 -82 -38 -91 -66 -3 -11 -12 -20 -18
-20 -18 0 -47 -37 -47 -58 0 -31 -19 -41 -48 -26 -24 12 -28 12 -41 -10 -22
-36 -48 -49 -72 -35 -22 11 -41 10 -149 -14 -114 -25 -184 -49 -220 -76 -47
-35 -70 -63 -65 -79 2 -7 -4 -18 -15 -24 -11 -7 -20 -15 -20 -19 0 -3 -18 -25
-40 -49 -52 -56 -90 -131 -96 -188 -5 -38 1 -65 31 -142 21 -52 43 -106 50
-120 7 -15 9 -33 5 -45 -7 -17 -12 -11 -33 35 -35 80 -49 128 -41 142 5 8 2 9
-9 5 -9 -3 -16 -3 -15 1 1 4 -6 21 -15 39 -9 18 -17 45 -17 62 0 16 -6 31 -12
34 -10 4 -10 7 -1 17 10 11 9 16 -5 26 -14 11 -14 13 -2 14 12 0 14 11 12 53
-3 47 -6 53 -25 53 -14 -1 -23 7 -26 22 -3 13 -10 22 -16 20 -5 -2 -13 11 -16
27 l-6 30 -11 -25 c-12 -25 -12 -25 -10 6 2 17 -2 38 -8 45 -22 27 -37 62 -24
54 7 -4 4 5 -5 19 -15 22 -18 48 -16 143 2 164 28 246 98 298 20 16 60 52 88
79 27 27 74 60 103 73 28 14 52 29 52 34 0 5 7 9 16 9 8 0 30 11 47 24 18 13
48 32 68 43 19 10 71 55 115 99 43 45 89 84 102 88 12 4 22 14 22 21 0 8 10
17 23 21 12 3 38 25 57 49 19 24 46 48 60 54 45 19 134 72 156 92 11 10 24 19
28 19 4 0 28 16 52 36 24 20 44 33 44 29 0 -4 7 -2 15 5 46 38 180 44 306 14z
m-1679 -694 c-2 -16 -6 -30 -8 -30 -2 0 -4 14 -4 30 0 17 4 30 8 30 5 0 7 -13
4 -30z m2735 -995 c3 -9 3 -18 1 -20 -6 -7 -58 18 -58 28 0 14 51 7 57 -8z
m23 -141 c0 -27 -18 -23 -22 6 -4 24 -2 27 9 19 7 -7 13 -17 13 -25z m-1796
-10 c9 -3 16 -15 16 -25 0 -10 5 -19 11 -19 6 0 -3 -13 -20 -29 -17 -16 -31
-34 -31 -40 0 -6 -9 -11 -20 -11 -11 0 -20 -6 -20 -14 0 -18 -36 -27 -67 -15
-35 13 -50 11 -70 -9 -25 -26 -88 -29 -102 -5 -10 17 -10 17 -11 -1 0 -15 -3
-16 -14 -7 -11 9 -16 9 -23 -1 -5 -9 -10 -2 -13 22 -5 36 -36 52 -34 17 2 -14
-1 -15 -12 -6 -16 13 -19 89 -4 89 6 0 10 -8 11 -17 0 -11 3 -13 6 -5 2 6 8
10 13 7 5 -3 16 2 25 11 9 9 24 14 37 11 11 -3 31 1 44 10 17 11 52 16 116 17
59 1 98 6 106 14 15 13 32 15 56 6z m907 -50 c14 -13 22 -13 39 -4 14 7 25 8
29 3 3 -5 14 -12 24 -16 24 -9 21 -20 -10 -39 -16 -10 -22 -18 -15 -18 6 0 12
-4 12 -9 0 -9 -58 1 -78 13 -6 3 -13 -3 -17 -14 -9 -29 -35 -25 -35 5 0 16 -6
25 -15 25 -20 0 -19 5 7 40 25 34 34 36 59 14z m829 -44 c0 -5 -4 -10 -9 -10
-6 0 -13 5 -16 10 -3 6 1 10 9 10 9 0 16 -4 16 -10z m-820 -50 c0 -5 -4 -10
-10 -10 -5 0 -10 5 -10 10 0 6 5 10 10 10 6 0 10 -4 10 -10z m-3218 -174 c-15
-34 -65 -72 -81 -62 -4 3 -17 -4 -29 -14 -23 -21 -42 -26 -42 -11 0 5 8 12 18
15 9 4 43 31 75 62 63 60 83 63 59 10z m64 7 c-10 -10 -19 5 -10 18 6 11 8 11
12 0 2 -7 1 -15 -2 -18z m-42 -38 c-9 -14 -24 -25 -34 -25 -17 0 -17 2 3 25
30 34 53 34 31 0z m406 -29 c0 -11 -19 -15 -25 -6 -3 5 1 10 9 10 9 0 16 -2
16 -4z m2910 -52 c0 -8 -4 -12 -10 -9 -5 3 -10 10 -10 16 0 5 5 9 10 9 6 0 10
-7 10 -16z m-70 -11 c0 -27 -13 -41 -44 -49 -45 -11 -65 34 -23 54 35 17 67
15 67 -5z m474 11 c18 -7 21 -30 6 -39 -12 -7 -62 29 -53 39 8 8 27 8 47 0z
m-3989 -37 c13 -10 15 -16 6 -21 -6 -4 -19 -2 -27 5 -11 9 -21 9 -39 1 -27
-12 -33 -4 -13 16 16 16 50 15 73 -1z m835 -3 c0 -2 -7 -4 -15 -4 -8 0 -15 4
-15 10 0 5 7 7 15 4 8 -4 15 -8 15 -10z m2568 -26 c4 -32 -13 -45 -63 -50 -51
-4 -52 11 -1 51 45 36 60 35 64 -1z m-3124 3 c4 -5 3 -17 -1 -27 -6 -16 -7
-16 -20 2 -7 10 -13 21 -13 26 0 11 27 10 34 -1z m3441 -23 c5 -18 8 -42 7
-52 -2 -11 3 -24 10 -29 11 -7 11 -10 0 -14 -7 -2 -18 -10 -25 -17 -6 -7 -32
-13 -57 -15 -24 -1 -48 -7 -52 -14 -5 -8 -12 -6 -22 8 -17 22 -21 65 -7 65 5
0 24 15 42 33 32 32 79 67 90 67 4 0 10 -15 14 -32z m-1887 3 c0 -9 3 -24 7
-33 5 -14 2 -18 -12 -18 -25 0 -43 19 -43 46 0 16 6 22 24 22 16 0 24 -6 24
-17z m-1688 -21 l35 -29 -39 9 c-25 6 -47 5 -59 -2 -14 -7 -22 -7 -27 2 -4 7
-13 9 -19 6 -21 -13 -11 13 11 28 32 23 58 19 98 -14z m186 -20 c7 0 14 -5 16
-11 2 -7 30 -11 71 -11 73 1 90 -13 30 -23 -118 -20 -118 -20 -115 -43 2 -12
-2 -22 -7 -22 -6 0 -11 5 -11 10 0 6 -8 10 -17 10 -13 0 -14 3 -5 12 20 20 14
27 -28 34 -43 7 -48 23 -12 39 11 5 27 20 34 34 l13 24 9 -26 c6 -15 15 -27
22 -27z m1044 30 c0 -5 -4 -10 -10 -10 -5 0 -10 5 -10 10 0 6 5 10 10 10 6 0
10 -4 10 -10z m780 -99 c0 -17 -49 -67 -50 -51 0 8 10 24 23 37 26 25 27 26
27 14z m-1783 -17 c-3 -3 -12 -4 -19 -1 -8 3 -5 6 6 6 11 1 17 -2 13 -5z
m-419 -23 c3 -8 -1 -12 -9 -9 -7 2 -15 10 -17 17 -3 8 1 12 9 9 7 -2 15 -10
17 -17z m702 -5 c0 -8 -8 -13 -17 -11 -10 2 -21 4 -25 4 -21 2 -5 21 17 21 15
0 25 -6 25 -14z m78 -46 c5 -26 -59 -47 -131 -42 -40 3 -23 22 18 22 26 0 33
4 29 14 -4 10 3 16 23 19 43 6 57 3 61 -13z m86 -9 c8 -13 -3 -19 -24 -14 -11
3 -17 9 -14 14 7 11 31 12 38 0z m83 -27 c-3 -3 -12 -4 -19 -1 -8 3 -5 6 6 6
11 1 17 -2 13 -5z m-726 -28 c-6 -8 -25 -16 -41 -18 -28 -4 -29 -4 -13 14 20
22 72 26 54 4z m475 -11 c18 -13 17 -14 -18 -15 -37 0 -51 13 -25 23 19 8 22
8 43 -8z m-409 -13 c-18 -2 -27 -8 -24 -16 9 -23 -9 -40 -29 -27 -11 6 -14 11
-8 11 7 0 11 8 10 17 -1 18 49 35 69 24 6 -3 -3 -7 -18 -9z m163 8 c0 -5 -2
-10 -4 -10 -3 0 -8 5 -11 10 -3 6 -1 10 4 10 6 0 11 -4 11 -10z m-372 -12 c-3
-7 -13 -13 -23 -13 -10 0 -20 6 -22 13 -3 7 5 12 22 12 17 0 25 -5 23 -12z
m-477 -21 c-1 -12 -15 -9 -19 4 -3 6 1 10 8 8 6 -3 11 -8 11 -12z m549 -17 c0
-15 -53 -22 -61 -8 -4 7 -3 15 2 19 13 8 59 -1 59 -11z m715 0 c-3 -5 -12 -7
-20 -3 -21 7 -19 13 6 13 11 0 18 -4 14 -10z m-825 -10 c0 -13 -28 -25 -38
-16 -3 4 0 11 8 16 20 13 30 12 30 0z m114 -19 c7 -11 -22 -23 -36 -15 -6 4
-5 10 3 15 18 11 26 11 33 0z m97 -17 c11 -14 10 -15 -11 -12 -13 1 -25 9 -28
16 -5 17 23 15 39 -4z m-228 -11 c-7 -2 -19 -2 -25 0 -7 3 -2 5 12 5 14 0 19
-2 13 -5z m-43 -23 c0 -5 -7 -7 -15 -4 -8 4 -12 10 -9 15 6 11 24 2 24 -11z
m488 -7 c-4 -20 -54 -31 -70 -15 -17 17 1 32 38 32 28 0 35 -4 32 -17z m-1155
-8 c-4 -15 -36 -12 -41 3 -3 9 3 13 19 10 13 -1 23 -7 22 -13z m1057 6 c0 -12
-29 -23 -41 -15 -5 3 -7 10 -4 15 8 12 45 12 45 0z m387 -12 c-14 -8 -22 -8
-30 0 -8 8 -3 11 19 11 25 -1 27 -2 11 -11z m-1350 -45 c-3 -3 -12 -4 -19 -1
-8 3 -5 6 6 6 11 1 17 -2 13 -5z m-52 -21 c17 -2 36 -5 43 -5 15 -2 16 -24 2
-33 -6 -4 -8 -11 -5 -16 4 -5 -5 -9 -19 -9 -14 0 -26 4 -26 9 0 18 -46 20 -92
3 -26 -9 -50 -14 -53 -11 -3 3 -2 19 1 36 5 25 10 30 28 25 11 -2 30 -12 40
-21 18 -15 19 -15 13 2 -9 25 1 40 22 32 9 -4 30 -9 46 -12z m2395 14 c0 -2
-10 -12 -21 -23 -22 -19 -22 -19 -8 4 12 19 29 30 29 19z m-1860 -37 c0 -5 -5
-10 -11 -10 -5 0 -7 5 -4 10 3 6 8 10 11 10 2 0 4 -4 4 -10z m2950 -99 c0 -12
-20 -27 -47 -35 -18 -6 -22 -4 -17 7 8 22 64 47 64 28z m-618 -42 c33 -7 64
-22 83 -39 17 -15 40 -33 53 -39 12 -7 22 -18 22 -26 0 -11 -6 -11 -32 3 -18
8 -37 22 -43 29 -9 11 -65 19 -193 27 -34 2 -31 17 8 37 41 22 35 22 102 8z
m-201 -79 c5 0 2 -11 -7 -25 -9 -14 -21 -25 -26 -25 -6 0 -21 -12 -34 -27 -13
-15 -27 -24 -31 -20 -4 4 5 19 20 33 15 14 27 33 27 43 0 23 10 33 28 26 7 -3
18 -5 23 -5z m818 -52 c-12 -24 -35 -58 -50 -76 -34 -39 -36 -52 -9 -59 16 -4
18 -9 9 -24 -5 -10 -17 -19 -27 -20 -10 0 -12 -3 -4 -6 17 -7 15 -23 -3 -23
-9 0 -30 7 -47 16 -17 9 -58 20 -91 24 -33 5 -63 13 -66 18 -3 5 -21 15 -38
23 -18 8 -33 20 -33 28 0 7 -6 11 -15 7 -8 -3 -14 -2 -14 2 3 20 -3 31 -19 37
-11 3 -24 17 -30 30 -10 22 -9 25 7 25 10 0 38 -13 62 -30 52 -35 60 -36 84
-10 10 11 25 20 34 20 14 -1 14 -2 -1 -14 -23 -17 -23 -32 1 -39 12 -3 22 1
26 10 4 11 14 14 34 10 15 -3 33 -1 40 6 8 8 11 8 11 -1 0 -7 -7 -15 -15 -18
-8 -4 -15 -11 -15 -17 0 -8 3 -8 11 0 6 6 18 9 25 6 8 -3 17 2 20 11 3 9 14
16 24 16 20 0 55 29 46 38 -3 2 -12 -1 -21 -8 -13 -10 -15 -9 -15 8 0 16 5 19
22 14 17 -4 20 -2 15 13 -5 12 -3 16 5 12 7 -2 22 -1 33 4 11 4 21 8 23 8 1 1
-7 -18 -19 -41z m-154 -9 c-10 -15 -25 -10 -19 6 4 8 10 12 15 9 5 -3 7 -10 4
-15z m-50 2 c3 -5 -2 -17 -11 -25 -21 -21 -22 -20 -16 9 4 25 16 32 27 16z
m-1535 -56 c0 -8 -4 -15 -10 -15 -5 0 -7 7 -4 15 4 8 8 15 10 15 2 0 4 -7 4
-15z m-43 -17 c-3 -8 -6 -5 -6 6 -1 11 2 17 5 13 3 -3 4 -12 1 -19z m1193 -5
c0 -5 -5 -15 -10 -23 -7 -12 -12 -12 -22 -2 -10 10 -10 15 2 22 18 12 30 13
30 3z m-3320 -13 c0 -11 -40 -34 -47 -26 -3 3 -3 12 0 21 7 16 47 21 47 5z
m1946 -47 c-11 -11 -19 6 -11 24 8 17 8 17 12 0 3 -10 2 -21 -1 -24z m-474
-43 c-4 -27 0 -32 27 -43 35 -13 45 -30 32 -55 -5 -9 -12 -25 -15 -34 -9 -29
-29 -22 -22 7 5 18 2 25 -8 25 -8 0 -17 -6 -19 -12 -3 -8 -6 -6 -6 5 -1 9 -6
17 -12 17 -6 0 -17 7 -25 15 -21 21 -44 8 -40 -23 2 -15 1 -19 -1 -10 -3 11
-12 15 -28 12 -13 -2 -27 1 -30 7 -11 16 26 50 47 43 13 -4 16 -1 12 9 -6 17
35 31 62 20 14 -5 16 -2 10 20 -4 19 -3 27 7 27 9 0 12 -9 9 -30z m2003 0 c-3
-5 -11 -10 -16 -10 -6 0 -7 5 -4 10 3 6 11 10 16 10 6 0 7 -4 4 -10z m83 -10
c14 0 22 -6 22 -17 0 -13 -3 -14 -12 -5 -7 7 -21 12 -32 12 -12 0 -28 5 -36
11 -12 8 -10 9 10 5 14 -3 35 -6 48 -6z m-1318 -44 c0 -3 -4 -8 -10 -11 -5 -3
-10 -1 -10 4 0 6 5 11 10 11 6 0 10 -2 10 -4z m-985 -60 c-15 -14 -24 -30 -20
-35 3 -6 -1 -11 -9 -11 -9 0 -16 9 -16 20 0 11 7 20 15 20 8 0 22 11 32 24 10
13 19 20 21 15 2 -5 -8 -20 -23 -33z m-65 4 c-24 -15 -37 -11 -16 5 11 8 22
12 25 9 3 -3 -1 -9 -9 -14z m1138 8 c-6 -18 -55 -44 -65 -35 -9 9 35 46 55 47
8 0 12 -6 10 -12z m-1008 -13 c0 -17 -36 -75 -47 -75 -7 0 -13 -4 -13 -10 0
-5 -7 -7 -15 -4 -21 8 -19 14 17 57 26 31 58 49 58 32z m623 -16 c3 -13 1 -19
-6 -16 -15 5 -22 37 -9 37 5 0 12 -9 15 -21z m80 2 c8 -1 10 -31 1 -31 -3 0
-15 5 -26 11 -19 10 -20 9 -14 -24 4 -19 2 -47 -4 -62 -10 -27 -11 -27 -25 -9
-11 15 -17 16 -23 6 -5 -7 -16 -10 -25 -6 -9 3 -30 -4 -49 -17 l-33 -23 23 25
c12 14 22 30 22 37 0 6 6 9 13 6 7 -2 21 4 31 15 10 11 24 17 32 14 10 -4 14
4 14 29 0 35 1 35 63 29z m863 -14 c4 -4 2 -7 -4 -7 -7 0 -12 -10 -12 -22 0
-26 -5 -21 -14 14 -4 20 -2 26 9 24 8 -1 18 -5 21 -9z m-1033 -3 c7 -7 -14
-44 -25 -44 -5 0 -8 7 -8 16 0 9 5 12 12 8 8 -5 9 -2 5 9 -6 17 4 23 16 11z
m1302 -4 c-3 -5 -14 -10 -23 -10 -15 0 -15 2 -2 10 20 13 33 13 25 0z m-1376
-34 c-2 -2 -14 -7 -26 -10 -19 -6 -23 -3 -23 12 0 26 21 34 39 16 8 -7 13 -15
10 -18z m131 14 c0 -5 -4 -12 -10 -15 -5 -3 -10 -4 -10 -1 0 2 -3 12 -6 20 -5
12 -2 15 10 10 9 -3 16 -10 16 -14z m250 -10 c0 -5 -4 -10 -10 -10 -5 0 -10 5
-10 10 0 6 5 10 10 10 6 0 10 -4 10 -10z m1124 -5 c-4 -8 -11 -12 -16 -9 -6 4
-5 10 3 15 19 12 19 11 13 -6z m-86 -23 c2 -8 -9 -12 -32 -12 -20 0 -36 -5
-36 -11 0 -5 -5 -7 -10 -4 -15 9 9 37 26 31 7 -3 16 -1 20 5 7 12 26 7 32 -9z
m-2126 -25 c-2 -18 2 -26 10 -23 7 1 10 1 6 -1 -5 -3 -8 -11 -8 -19 0 -8 -7
-14 -15 -14 -8 0 -15 -4 -15 -10 0 -5 -6 -10 -14 -10 -8 0 -16 -7 -20 -15 -3
-8 -13 -15 -22 -15 -12 0 -15 6 -10 24 3 14 2 28 -4 31 -5 3 -10 13 -10 21 0
10 7 13 24 8 16 -4 25 -1 30 11 5 13 2 16 -9 11 -10 -3 -13 -2 -10 5 4 6 13 8
21 5 8 -3 17 1 21 10 9 24 28 10 25 -19z m1858 29 c0 -3 -4 -8 -10 -11 -5 -3
-10 -1 -10 4 0 6 5 11 10 11 6 0 10 -2 10 -4z m150 -6 c13 -8 13 -10 -2 -10
-9 0 -20 5 -23 10 -8 13 5 13 25 0z m-2095 -20 c-3 -5 -12 -10 -18 -10 -7 0
-6 4 3 10 19 12 23 12 15 0z m2049 -18 c2 -4 -5 -14 -17 -22 -19 -12 -21 -11
-10 2 7 8 10 18 6 21 -3 4 -1 7 5 7 6 0 13 -4 16 -8z m-854 -33 c0 -5 -10 -9
-21 -9 -18 0 -19 2 -9 15 12 15 30 12 30 -6z m700 -3 c0 -3 -4 -8 -10 -11 -5
-3 -10 -1 -10 4 0 6 5 11 10 11 6 0 10 -2 10 -4z m-1723 -45 c3 -11 11 -22 19
-25 29 -11 15 -42 -23 -55 -21 -7 -42 -14 -48 -16 -5 -3 -16 -1 -24 4 -12 8
-12 14 0 43 13 32 45 67 62 68 5 0 11 -9 14 -19z m1108 -61 c-3 -5 -11 -10
-16 -10 -6 0 -7 5 -4 10 3 6 11 10 16 10 6 0 7 -4 4 -10z m-70 -30 c-5 -15 -2
-20 11 -20 13 0 14 -3 4 -15 -6 -8 -8 -20 -4 -26 5 -9 2 -10 -10 -6 -10 4 -26
7 -37 7 -15 0 -19 7 -19 36 0 19 4 33 8 30 4 -2 14 -1 22 5 24 14 32 11 25
-11z m-68 -24 c4 -3 -11 -6 -32 -6 -22 0 -46 -7 -57 -17 -10 -9 -18 -11 -18
-6 0 27 86 50 107 29z m-1248 -10 c-2 -2 -18 -8 -34 -11 -21 -5 -27 -4 -20 3
6 5 19 12 30 14 20 4 32 1 24 -6z m311 -1 c0 -8 -10 -20 -22 -26 -20 -11 -20
-13 -5 -24 21 -15 22 -25 2 -25 -8 0 -15 -4 -15 -10 0 -5 -4 -10 -10 -10 -13
0 -13 47 0 55 6 4 8 10 5 15 -6 9 21 40 36 40 5 0 9 -7 9 -15z m607 -60 c10
-11 24 -20 31 -21 37 -3 42 -5 42 -17 0 -9 -13 -14 -35 -15 -20 -1 -40 -4 -45
-7 -14 -8 1 -45 19 -46 12 0 11 -2 -4 -8 -11 -5 -23 -7 -27 -5 -4 3 -9 0 -13
-6 -3 -5 -12 -10 -18 -10 -7 0 -4 5 6 11 14 8 16 14 6 25 -10 13 -15 73 -10
139 l2 20 14 -20 c8 -11 23 -29 32 -40z m-437 26 c0 -6 -4 -13 -10 -16 -5 -3
-10 1 -10 9 0 9 5 16 10 16 6 0 10 -4 10 -9z m1050 -30 c0 -5 -18 -11 -40 -15
-22 -3 -40 -11 -40 -18 0 -6 -3 -9 -6 -5 -3 3 -3 15 1 26 5 17 15 21 46 21 21
0 39 -4 39 -9z m-240 -5 c0 -3 -4 -8 -10 -11 -5 -3 -10 -1 -10 4 0 6 5 11 10
11 6 0 10 -2 10 -4z m-710 -16 c0 -5 -2 -10 -4 -10 -3 0 -8 5 -11 10 -3 6 -1
10 4 10 6 0 11 -4 11 -10z m621 -2 c8 -7 12 -12 10 -11 -2 2 -11 -3 -19 -10
-13 -10 -15 -9 -9 6 6 15 3 17 -14 12 -15 -5 -19 -4 -15 4 9 15 29 14 47 -1z
m-866 -38 c-3 -5 -12 -7 -20 -3 -21 7 -19 13 6 13 11 0 18 -4 14 -10z m951
-14 c11 -16 16 -17 43 -5 17 8 31 17 31 21 0 5 7 8 16 8 9 0 14 -7 12 -16 -4
-23 -112 -58 -116 -38 -2 8 -12 14 -23 14 -12 0 -19 7 -19 20 0 25 36 22 56
-4z m-1193 -10 c-21 -28 -28 -26 -18 3 3 12 13 21 21 21 12 0 12 -4 -3 -24z
m868 -13 c-4 -15 -13 -28 -19 -29 -7 -1 -8 0 -2 3 5 2 10 16 10 29 0 13 4 24
9 24 5 0 6 -12 2 -27z m-753 -31 c2 -12 9 -22 15 -23 7 0 -1 -6 -17 -13 -31
-14 -101 -5 -121 15 -7 7 -5 8 6 4 10 -4 23 5 38 24 19 24 27 28 49 22 17 -5
28 -15 30 -29z m105 32 c3 -3 1 -14 -6 -25 -8 -13 -14 -15 -24 -7 -10 8 -10
14 -2 24 12 15 22 17 32 8z m-283 -13 c0 -5 -8 -7 -18 -4 -13 3 -28 -6 -45
-26 -14 -17 -30 -31 -36 -31 -16 0 -14 7 11 40 16 23 30 30 55 30 18 0 33 -4
33 -9z m40 -30 c0 -5 3 -17 7 -27 4 -12 2 -15 -8 -12 -15 5 -22 48 -8 48 5 0
9 -4 9 -9z m715 -1 l30 0 -32 -20 c-19 -11 -40 -17 -50 -13 -15 6 -15 7 3 14
18 7 18 8 -1 8 -12 1 -25 -3 -31 -9 -5 -5 -20 -7 -33 -3 -23 6 -22 7 10 19 19
6 43 10 54 8 11 -2 34 -4 50 -4z m-512 -29 c-3 -10 -16 -21 -29 -24 -29 -5
-30 -4 -2 28 23 27 39 25 31 -4z m317 22 c-8 -3 -23 -12 -33 -21 -21 -19 -35
-9 -17 13 7 8 24 15 39 14 15 0 20 -3 11 -6z m391 -11 c-10 -18 -51 -28 -51
-12 0 11 30 29 48 30 9 0 10 -5 3 -18z m-61 -15 c0 -2 -8 -11 -18 -20 -16 -15
-18 -15 -18 3 0 13 7 20 18 20 10 0 18 -2 18 -3z m-809 -36 c13 -12 16 -21 10
-25 -7 -5 -7 -15 -1 -32 15 -37 12 -47 -10 -41 -26 7 -25 -1 3 -31 15 -17 18
-26 10 -29 -7 -3 -13 -18 -13 -34 0 -16 -4 -29 -10 -29 -5 0 -10 6 -10 13 0 8
-3 7 -10 -3 -8 -13 -11 -12 -24 5 -9 11 -13 26 -11 34 3 7 0 19 -5 27 -6 7
-10 32 -8 56 2 36 7 44 26 46 17 3 22 10 22 33 0 34 4 35 31 10z m44 1 c-3 -3
-11 0 -18 7 -9 10 -8 11 6 5 10 -3 15 -9 12 -12z m841 7 c8 -14 -14 -29 -43
-29 -12 0 -26 -7 -31 -16 -5 -9 -12 -12 -15 -7 -8 12 3 25 38 45 37 20 42 21
51 7z m-1076 -8 c0 -5 -10 -16 -22 -24 -19 -13 -20 -18 -9 -25 11 -8 10 -12
-5 -21 -18 -10 -18 -12 -1 -21 30 -19 21 -46 -21 -58 -31 -10 -97 -60 -81 -63
2 0 19 -2 36 -5 18 -2 42 -13 53 -24 22 -22 36 -25 45 -10 13 22 27 9 22 -20
-4 -16 -2 -32 3 -35 19 -11 10 -23 -22 -29 -17 -3 -39 -13 -49 -22 -16 -14
-18 -14 -28 5 -8 13 -8 28 -1 46 6 15 8 31 4 36 -10 17 -32 9 -39 -13 -6 -20
-8 -20 -12 -5 -2 9 -8 17 -13 17 -14 0 -21 -18 -10 -25 17 -10 11 -25 -10 -25
-11 0 -20 -7 -20 -15 0 -8 5 -15 10 -15 6 0 10 -4 10 -10 0 -5 -9 -10 -20 -10
-11 0 -20 5 -20 10 0 13 -31 13 -50 -1 -12 -8 -10 -9 8 -4 13 4 22 2 22 -4 0
-6 7 -11 17 -11 14 0 14 -2 -2 -20 -16 -17 -16 -20 -2 -20 9 0 22 9 30 20 17
24 27 16 27 -22 0 -16 5 -28 13 -28 16 0 97 -61 97 -72 0 -5 -10 -12 -22 -17
-27 -10 -48 3 -48 30 0 12 -7 19 -19 19 -10 0 -35 7 -56 16 -28 12 -36 12 -33
2 3 -7 19 -18 37 -24 l32 -10 -24 -13 c-13 -7 -37 -11 -53 -9 -21 2 -28 -1
-27 -12 1 -8 -6 -26 -17 -40 -16 -21 -20 -22 -21 -7 -1 9 -2 23 -3 30 -1 7
-13 11 -29 9 -26 -3 -27 -1 -22 35 3 21 9 39 15 41 5 2 10 12 10 23 0 17 -5
19 -37 13 -48 -8 -52 -13 -30 -28 21 -16 22 -36 2 -36 -8 0 -15 7 -15 15 0 14
-12 20 -34 16 -5 -1 -16 5 -26 14 -15 14 -18 14 -30 0 -9 -11 -16 -12 -26 -4
-7 6 -18 8 -23 4 -6 -3 -20 -1 -32 5 -17 10 -28 8 -55 -6 -19 -10 -34 -22 -34
-26 0 -5 -9 -8 -20 -8 -11 0 -20 7 -20 15 0 8 -5 15 -11 15 -5 0 -7 5 -4 11 4
6 21 9 39 8 22 -2 43 5 67 24 20 15 43 27 52 27 9 0 31 9 49 20 18 11 43 20
56 20 12 0 22 4 22 10 0 5 -8 7 -17 4 -16 -5 -16 -4 -2 5 17 11 23 13 97 26
23 4 40 10 38 13 -8 7 63 72 79 72 9 0 21 12 27 28 7 15 26 40 42 55 24 21 28
30 17 36 -10 6 -3 16 25 37 22 16 48 39 59 51 20 21 65 32 65 14z m280 -11 c0
-5 -2 -10 -4 -10 -3 0 -8 5 -11 10 -3 6 -1 10 4 10 6 0 11 -4 11 -10z m-1357
-17 c-7 -2 -21 -2 -30 0 -10 3 -4 5 12 5 17 0 24 -2 18 -5z m364 -16 c4 -6 -2
-8 -18 -4 -13 4 -30 7 -37 7 -7 0 -11 4 -8 9 7 11 54 2 63 -12z m1683 6 c0 -5
-4 -14 -9 -22 -8 -12 -12 -13 -26 -1 -13 10 -13 15 -3 21 16 11 38 11 38 2z
m-1877 -10 c-7 -2 -21 -2 -30 0 -10 3 -4 5 12 5 17 0 24 -2 18 -5z m1447 -4
c0 -5 5 -7 10 -4 12 7 13 -5 2 -22 -5 -8 -11 -3 -19 13 -6 13 -7 24 -2 24 5 0
9 -5 9 -11z m619 -13 c-12 -10 -59 -15 -59 -6 0 5 14 10 32 10 17 0 29 -2 27
-4z m-449 -15 c0 -12 -20 -25 -27 -18 -7 7 6 27 18 27 5 0 9 -4 9 -9z m186
-11 c0 -10 -2 -17 -5 -15 -2 3 -10 0 -18 -7 -23 -19 -26 -1 -4 21 26 26 27 26
27 1z m-460 -5 c15 -10 20 -22 16 -40 -2 -14 -10 -24 -16 -22 -6 2 -17 -3 -23
-12 -11 -14 -14 -14 -22 -1 -5 8 -7 18 -4 23 3 5 -11 -2 -31 -15 -23 -15 -34
-28 -30 -38 3 -8 1 -11 -3 -6 -19 19 -8 58 22 79 16 11 34 27 38 34 10 17 28
16 53 -2z m-1436 -20 c0 -12 -29 -3 -34 10 -4 13 -2 14 14 5 11 -6 20 -13 20
-15z m740 15 c0 -5 -4 -10 -10 -10 -5 0 -10 5 -10 10 0 6 5 10 10 10 6 0 10
-4 10 -10z m1434 2 c2 -4 -4 -13 -14 -20 -14 -8 -21 -8 -26 -1 -4 6 0 15 7 20
18 11 26 11 33 1z m764 -7 c2 -2 5 -24 7 -50 1 -26 8 -50 14 -54 15 -10 2 -51
-15 -44 -8 3 -14 0 -14 -7 0 -7 -11 -10 -28 -9 -15 2 -32 0 -38 -4 -7 -4 -17
-1 -23 7 -9 11 -8 15 6 21 10 5 26 7 36 6 21 -3 23 17 1 26 -11 4 -15 16 -13
42 2 20 0 37 -4 39 -16 5 -28 1 -22 -7 9 -15 -30 -32 -42 -20 -8 8 -13 7 -17
0 -4 -6 0 -11 8 -11 9 0 16 -4 16 -8 0 -15 -56 -62 -78 -67 -12 -2 -27 -7 -32
-10 -13 -8 -13 11 2 52 7 18 17 33 23 33 6 0 22 11 34 24 14 15 40 27 65 31
22 4 48 11 56 16 13 7 47 3 58 -6z m-2458 -5 c0 -5 -2 -10 -4 -10 -3 0 -8 5
-11 10 -3 6 -1 10 4 10 6 0 11 -4 11 -10z m1595 -20 c-10 -11 -22 -20 -27 -20
-5 0 -4 9 2 20 6 11 18 20 27 20 14 0 14 -2 -2 -20z m-2265 -22 c0 -26 -9 -19
-15 11 -2 12 0 19 6 16 5 -4 9 -16 9 -27z m2120 -13 c-19 -19 -37 -35 -41 -35
-16 0 4 37 29 53 44 27 48 20 12 -18z m-1140 -5 c0 -11 -4 -20 -10 -20 -5 0
-10 9 -10 20 0 11 5 20 10 20 6 0 10 -9 10 -20z m1000 12 c0 -5 -16 -17 -36
-28 -20 -10 -43 -32 -50 -49 -7 -16 -13 -23 -14 -14 0 16 -30 36 -30 20 0 -4
-11 -14 -25 -21 -14 -7 -25 -19 -25 -27 0 -7 -7 -13 -15 -13 -23 0 -18 15 11
36 15 10 41 31 59 46 49 42 125 72 125 50z m435 -2 c-3 -5 -10 -10 -16 -10 -5
0 -9 5 -9 10 0 6 7 10 16 10 8 0 12 -4 9 -10z m-1660 -20 c-21 -23 -35 -26
-35 -6 0 15 14 24 39 25 11 1 10 -4 -4 -19z m2089 -4 c-7 -18 -25 -17 -31 1
-2 6 4 13 14 15 23 5 25 4 17 -16z m-2693 -4 c-5 -10 -16 -24 -24 -31 -12 -9
-16 -8 -21 5 -4 9 -5 18 -4 18 5 3 53 25 56 25 1 1 -2 -7 -7 -17z m1023 2 c20
-8 21 -30 1 -38 -8 -3 -15 -1 -15 3 0 5 -3 16 -6 25 -7 18 -4 19 20 10z m396
-4 c0 -5 -5 -10 -11 -10 -5 0 -7 5 -4 10 3 6 8 10 11 10 2 0 4 -4 4 -10z m96
-11 c14 -15 15 -20 4 -17 -16 3 -30 18 -30 31 0 11 6 8 26 -14z m371 -4 c-14
-10 -15 -14 -5 -19 7 -3 4 -4 -7 -1 -13 3 -33 -7 -58 -30 -41 -37 -53 -44 -40
-21 10 19 116 96 123 89 3 -2 -3 -11 -13 -18z m233 15 c0 -5 -5 -10 -11 -10
-5 0 -7 5 -4 10 3 6 8 10 11 10 2 0 4 -4 4 -10z m-1481 -61 c-39 -35 -46 -36
-46 -5 0 16 8 26 26 33 45 17 55 3 20 -28z m977 26 c-1 -8 -5 -17 -8 -21 -5
-4 -4 16 1 34 3 9 9 -1 7 -13z m-1638 -31 c-9 -10 -21 -13 -29 -8 -9 5 -8 9 7
15 31 12 39 10 22 -7z m1368 1 c-3 -8 -1 -15 4 -15 6 0 5 -11 -2 -25 -7 -16
-19 -25 -34 -25 -19 0 -23 5 -22 25 2 23 18 37 18 15 0 -5 5 -10 10 -10 6 0 8
11 4 25 -5 19 -2 25 11 25 11 0 15 -5 11 -15z m-1768 -63 c-5 -2 -15 1 -23 8
-11 9 -12 16 -2 30 11 18 12 18 23 -8 6 -15 7 -29 2 -30z m1132 48 c0 -5 -5
-10 -11 -10 -5 0 -7 5 -4 10 3 6 8 10 11 10 2 0 4 -4 4 -10z m1335 -1 c-4 -5
11 -17 31 -25 35 -15 39 -15 50 1 7 9 17 14 23 10 6 -3 11 -1 11 4 0 6 8 11
18 11 13 -1 11 -5 -10 -21 -17 -13 -25 -26 -22 -37 4 -10 3 -13 -3 -6 -4 6
-30 16 -56 24 -27 7 -51 19 -54 26 -2 7 -11 10 -18 8 -7 -3 -15 -2 -18 3 -3 4
8 9 24 10 18 1 27 -2 24 -8z m958 -16 c-4 -10 -15 -24 -25 -31 -10 -7 -18 -24
-18 -38 0 -14 -4 -23 -9 -19 -5 3 -12 1 -16 -5 -3 -5 -13 -10 -20 -10 -12 0
-12 5 -3 28 6 15 10 39 9 54 -1 22 4 27 26 31 58 9 63 8 56 -10z m97 7 c0 -5
-7 -7 -15 -4 -8 4 -15 8 -15 10 0 2 7 4 15 4 8 0 15 -4 15 -10z m-613 -13 c0
-8 -6 -14 -14 -14 -9 0 -10 4 -2 14 6 7 12 13 14 13 1 0 2 -6 2 -13z m-473
-12 c-4 -8 -10 -12 -15 -9 -11 6 -2 24 11 24 5 0 7 -7 4 -15z m-404 -3 c0 -16
-29 -47 -37 -39 -4 5 0 13 10 18 9 6 15 14 12 20 -4 5 -1 9 4 9 6 0 11 -4 11
-8z m-70 -27 c-7 -9 -15 -13 -17 -11 -7 7 7 26 19 26 6 0 6 -6 -2 -15z m170 0
c0 -8 -7 -15 -16 -15 -14 0 -14 3 -4 15 7 8 14 15 16 15 2 0 4 -7 4 -15z m600
5 c0 -5 -5 -10 -11 -10 -5 0 -7 5 -4 10 3 6 8 10 11 10 2 0 4 -4 4 -10z
m-1815 -14 c-11 -8 -24 -12 -28 -9 -11 7 12 23 32 23 11 0 9 -4 -4 -14z m1595
-6 c0 -13 -5 -18 -15 -14 -12 5 -13 10 -4 20 15 19 19 18 19 -6z m340 16 c0
-11 -19 -15 -25 -6 -3 5 1 10 9 10 9 0 16 -2 16 -4z m-920 -16 c0 -5 -4 -10
-10 -10 -5 0 -10 5 -10 10 0 6 5 10 10 10 6 0 10 -4 10 -10z m830 -15 c16 -20
10 -25 -62 -54 -67 -26 -116 -24 -56 2 20 9 43 25 50 35 12 17 31 29 49 31 4
1 12 -6 19 -14z m760 5 c0 -5 -2 -10 -4 -10 -3 0 -8 5 -11 10 -3 6 -1 10 4 10
6 0 11 -4 11 -10z m-1970 -26 c0 -8 -5 -12 -10 -9 -6 4 -8 11 -5 16 9 14 15
11 15 -7z m-766 -20 c6 -15 4 -15 -11 -3 -10 7 -20 15 -22 16 -2 2 3 3 11 3 9
0 19 -7 22 -16z m1726 6 c0 -5 -5 -10 -11 -10 -5 0 -7 5 -4 10 3 6 8 10 11 10
2 0 4 -4 4 -10z m-1755 -20 c3 -5 -1 -10 -10 -10 -9 0 -13 5 -10 10 3 6 8 10
10 10 2 0 7 -4 10 -10z m1590 -9 c-3 -6 -11 -11 -17 -11 -6 0 -6 6 2 15 14 17
26 13 15 -4z m-665 5 c0 -3 -4 -8 -10 -11 -5 -3 -10 -1 -10 4 0 6 5 11 10 11
6 0 10 -2 10 -4z m345 -15 c-8 -14 -35 -14 -35 0 0 6 7 9 15 5 8 -3 15 0 15 6
0 6 3 9 6 5 3 -3 3 -10 -1 -16z m529 -12 c-31 -12 -40 -9 -20 6 10 8 24 11 29
8 6 -4 2 -10 -9 -14z m-810 -25 c-18 -27 -28 -27 -18 0 3 9 10 16 16 16 5 0 6
5 2 12 -4 7 -3 8 4 4 9 -5 7 -14 -4 -32z m455 -11 c-13 -16 -26 -30 -28 -33
-2 -3 -1 3 2 12 3 10 2 20 -4 23 -16 10 1 25 28 25 l26 0 -24 -27z m-1319 8
c0 -28 -21 -60 -35 -55 -8 4 -22 1 -30 -6 -11 -9 -15 -9 -15 -1 0 6 6 14 14
17 8 3 17 16 20 30 6 23 46 36 46 15z m1205 -18 c-22 -15 -28 -12 -19 10 3 9
12 13 21 10 14 -5 13 -8 -2 -20z m475 18 c0 -5 -8 -11 -17 -15 -10 -3 -28 -10
-40 -16 -13 -5 -23 -5 -23 -1 0 5 17 16 38 24 45 19 42 19 42 8z m-524 -27
c-23 -16 -50 -19 -41 -4 3 6 15 10 26 10 10 0 19 5 19 12 0 6 3 8 7 4 5 -4 -1
-14 -11 -22z m180 -31 c-11 -11 -19 6 -11 24 8 17 8 17 12 0 3 -10 2 -21 -1
-24z m-1463 11 c21 5 26 3 24 -14 -1 -11 -5 -20 -9 -20 -5 0 -4 -8 1 -18 8
-16 5 -18 -22 -19 -31 -1 -32 0 -32 42 0 24 3 38 6 33 4 -6 18 -8 32 -4z
m1034 -15 c1 -13 -5 -23 -18 -26 -10 -3 -19 -9 -19 -14 0 -5 -6 -9 -14 -9 -22
0 -8 34 22 53 15 9 27 17 27 17 1 0 1 -9 2 -21z m-122 -9 c-10 -11 -23 -20
-28 -20 -6 0 -2 9 8 20 10 11 23 20 28 20 6 0 2 -9 -8 -20z m602 -12 c-3 -8
-6 -5 -6 6 -1 11 2 17 5 13 3 -3 4 -12 1 -19z m-303 -4 c7 -18 -3 -64 -14 -64
-12 0 -33 57 -25 69 9 16 32 13 39 -5z m-524 -16 c0 -19 -2 -20 -10 -8 -13 19
-13 30 0 30 6 0 10 -10 10 -22z m1010 18 c0 -11 -19 -15 -25 -6 -3 5 1 10 9
10 9 0 16 -2 16 -4z m-241 -45 c-15 -5 -22 6 -14 19 6 9 10 9 16 -1 5 -8 4
-15 -2 -18z m193 7 c-6 -6 -15 -8 -19 -4 -4 4 -1 11 7 16 19 12 27 3 12 -12z
m924 3 c-9 -10 -14 -25 -10 -35 4 -11 1 -16 -12 -16 -16 0 -16 -2 -4 -9 8 -6
18 -7 22 -5 4 3 8 1 8 -3 0 -5 -18 -9 -40 -10 -23 -1 -40 3 -40 9 0 13 71 88
84 88 5 0 2 -8 -8 -19z m-361 -8 c4 -12 -1 -23 -14 -32 -12 -7 -21 -21 -22
-30 0 -12 -2 -11 -9 4 -14 32 -11 45 8 46 10 0 12 3 5 6 -20 7 -15 23 6 23 10
0 22 -8 26 -17z m-1659 -30 c-10 -10 -19 5 -10 18 6 11 8 11 12 0 2 -7 1 -15
-2 -18z m-647 -29 c-6 -8 -9 -17 -6 -21 8 -7 -55 -51 -65 -46 -12 6 21 66 50
90 22 19 28 20 30 7 2 -8 -2 -22 -9 -30z m1584 31 c4 -8 2 -17 -3 -20 -6 -4
-10 -4 -10 -1 0 2 -3 11 -6 20 -3 9 -2 16 4 16 5 0 12 -7 15 -15z m-1151 -26
c9 -5 30 -9 47 -9 32 0 44 -22 19 -34 -10 -5 -10 -7 0 -12 18 -8 -4 -34 -29
-34 -11 0 -29 -11 -40 -24 -17 -20 -26 -23 -45 -16 -15 6 -24 5 -28 -3 -3 -7
-4 -3 -3 8 2 16 -4 20 -30 19 -33 0 -44 10 -20 19 9 3 9 9 0 25 -16 27 1 40
25 19 29 -24 52 -28 52 -9 0 36 -15 44 -64 37 -52 -8 -63 7 -18 24 29 11 105
5 134 -10z m1978 11 c0 -5 -4 -10 -10 -10 -5 0 -10 5 -10 10 0 6 5 10 10 10 6
0 10 -4 10 -10z m-2495 -10 c-3 -5 -13 -10 -21 -10 -8 0 -14 5 -14 10 0 6 9
10 21 10 11 0 17 -4 14 -10z m1475 -10 c0 -11 -4 -20 -9 -20 -5 0 -7 9 -4 20
3 11 7 20 9 20 2 0 4 -9 4 -20z m280 10 c-19 -13 -30 -13 -30 0 0 6 10 10 23
10 18 0 19 -2 7 -10z m-475 -20 c-3 -5 -13 -10 -21 -10 -8 0 -12 5 -9 10 3 6
13 10 21 10 8 0 12 -4 9 -10z m259 -5 c-4 -8 -10 -12 -15 -9 -11 6 -2 24 11
24 5 0 7 -7 4 -15z m151 -5 c16 0 13 -4 -14 -21 -32 -19 -35 -19 -50 -3 -15
16 -15 16 3 10 15 -5 17 -4 7 8 -9 11 -9 15 1 19 7 2 17 1 23 -4 5 -5 18 -9
30 -9z m-670 -7 c-2 -10 -4 -21 -4 -25 -1 -11 -31 -10 -31 1 0 20 13 41 25 41
7 0 12 -8 10 -17z m320 7 c3 -5 -1 -10 -9 -10 -9 0 -16 5 -16 10 0 6 4 10 9
10 6 0 13 -4 16 -10z m-45 -10 c0 -5 -7 -10 -16 -10 -8 0 -12 5 -9 10 3 6 10
10 16 10 5 0 9 -4 9 -10z m-126 -9 c8 -12 -16 -38 -41 -46 -19 -5 -23 -3 -22
17 1 17 3 18 6 6 4 -16 6 -16 19 -4 8 8 14 19 14 25 0 13 17 15 24 2z m46 -5
c0 -3 -4 -8 -10 -11 -5 -3 -10 -1 -10 4 0 6 5 11 10 11 6 0 10 -2 10 -4z m740
-6 c0 -5 -2 -10 -4 -10 -3 0 -8 5 -11 10 -3 6 -1 10 4 10 6 0 11 -4 11 -10z
m-1320 -10 c0 -5 -4 -10 -10 -10 -5 0 -10 5 -10 10 0 6 5 10 10 10 6 0 10 -4
10 -10z m340 -4 c0 -8 -7 -16 -15 -20 -13 -4 -14 -2 -5 14 13 23 20 26 20 6z
m628 -12 c-9 -9 -22 -14 -30 -11 -9 4 -6 8 10 12 12 4 22 12 22 18 0 6 3 7 7
3 4 -3 0 -14 -9 -22z m-915 -10 c-4 -12 -8 -13 -14 -3 -9 15 -2 32 11 24 5 -3
6 -13 3 -21z m677 16 c12 -8 11 -10 -7 -10 -13 0 -23 5 -23 10 0 13 11 13 30
0z m154 -2 c-7 -11 -34 -10 -34 1 0 6 9 9 19 8 11 0 17 -5 15 -9z m-1672 -30
c-7 -7 -12 -8 -12 -2 0 6 3 14 7 17 3 4 9 5 12 2 2 -3 -1 -11 -7 -17z m1238
-9 c0 -4 -11 -19 -24 -32 l-24 -24 2 37 c1 32 4 36 24 32 12 -2 22 -8 22 -13z
m337 1 c-1 -19 -17 -27 -30 -14 -6 7 13 33 25 34 4 0 6 -9 5 -20z m-1517 -20
c0 -5 -5 -10 -11 -10 -5 0 -7 5 -4 10 3 6 8 10 11 10 2 0 4 -4 4 -10z m30 6
c0 -3 -4 -8 -10 -11 -5 -3 -10 -1 -10 4 0 6 5 11 10 11 6 0 10 -2 10 -4z
m1389 -17 c-16 -10 -23 -4 -14 10 3 6 11 8 17 5 6 -4 5 -9 -3 -15z m-1584 -8
c-3 -6 -11 -11 -17 -11 -6 0 -6 6 2 15 14 17 26 13 15 -4z m1285 4 c0 -8 -4
-15 -10 -15 -5 0 -7 7 -4 15 4 8 8 15 10 15 2 0 4 -7 4 -15z m-1220 -16 c0 -5
-7 -9 -15 -9 -15 0 -20 12 -9 23 8 8 24 -1 24 -14z m728 1 c5 -13 3 -13 -11
-2 -9 8 -21 11 -27 7 -5 -3 -10 -1 -10 5 0 17 43 8 48 -10z m462 -15 c0 -8 -4
-15 -10 -15 -5 0 -7 7 -4 15 4 8 8 15 10 15 2 0 4 -7 4 -15z m-1295 -5 c-3 -5
-13 -10 -21 -10 -8 0 -14 -10 -14 -24 0 -14 -5 -28 -11 -32 -8 -4 -9 1 -4 17
3 13 9 32 11 42 3 9 14 17 25 17 11 0 17 -4 14 -10z m2555 -4 c0 -3 -4 -8 -10
-11 -5 -3 -10 -1 -10 4 0 6 5 11 10 11 6 0 10 -2 10 -4z m50 -20 c0 -2 -7 -6
-15 -10 -8 -3 -15 -1 -15 4 0 6 7 10 15 10 8 0 15 -2 15 -4z m-1445 -26 c-3
-5 -11 -10 -16 -10 -6 0 -7 5 -4 10 3 6 11 10 16 10 6 0 7 -4 4 -10z m-435
-74 c0 -11 -19 -15 -25 -6 -3 5 1 10 9 10 9 0 16 -2 16 -4z m0 -41 c0 -8 -3
-15 -6 -15 -3 0 -12 7 -20 15 -14 13 -13 15 5 15 12 0 21 -6 21 -15z m1550
-35 c0 -5 -5 -10 -11 -10 -5 0 -7 5 -4 10 3 6 8 10 11 10 2 0 4 -4 4 -10z
m-2010 -4 c0 -2 -9 -6 -20 -9 -11 -3 -18 -1 -14 4 5 9 34 13 34 5z m1135 -17
c9 -27 4 -30 -19 -13 -11 8 -14 14 -7 14 7 0 9 5 6 10 -3 6 -2 10 4 10 5 0 13
-9 16 -21z m485 -9 c0 -5 -4 -10 -10 -10 -5 0 -10 5 -10 10 0 6 5 10 10 10 6
0 10 -4 10 -10z m-429 -32 c11 -21 11 -22 -4 -9 -10 7 -17 17 -17 22 0 15 9
10 21 -13z m-47 -23 c-6 -14 5 -19 34 -16 6 1 12 -3 12 -9 0 -5 -4 -10 -10
-10 -5 0 -10 -4 -10 -10 0 -5 6 -10 13 -10 6 0 12 -11 12 -25 0 -19 -5 -24
-22 -22 -16 1 -23 8 -24 22 0 11 -3 14 -6 8 -2 -7 -12 -13 -21 -13 -12 0 -13
3 -4 12 7 7 12 23 12 38 0 19 -3 22 -9 10 -6 -8 -7 -18 -5 -22 3 -4 3 -8 -1
-8 -3 0 -9 10 -14 22 -6 17 -4 26 8 35 22 17 42 16 35 -2z m-1270 -7 c-3 -4 0
-8 7 -8 9 0 9 -4 -1 -15 -6 -8 -9 -19 -5 -24 4 -7 0 -8 -10 -5 -9 4 -14 13
-11 20 3 7 1 16 -4 19 -16 10 -11 21 9 21 11 0 17 -4 15 -8z m126 -13 c0 -22
-2 -24 -14 -13 -10 9 -11 17 -4 26 15 17 18 15 18 -13z m4336 0 c-13 -14 -27
-25 -31 -25 -5 0 2 11 15 25 13 14 27 25 31 25 5 0 -2 -11 -15 -25z m-3111 5
c-3 -5 -11 -10 -16 -10 -6 0 -7 5 -4 10 3 6 11 10 16 10 6 0 7 -4 4 -10z
m3157 -26 c-5 -23 -24 -36 -35 -25 -12 12 11 53 26 48 7 -2 10 -13 9 -23z
m-3769 4 c16 -12 15 -15 -8 -40 -14 -15 -25 -32 -25 -38 0 -6 -8 -9 -18 -6
-11 4 -34 -4 -57 -20 -41 -28 -58 -20 -46 21 20 70 108 117 154 83z m480 -8
c3 -11 1 -20 -4 -20 -5 0 -9 9 -9 20 0 11 2 20 4 20 2 0 6 -9 9 -20z m430 3
c-7 -2 -19 -2 -25 0 -7 3 -2 5 12 5 14 0 19 -2 13 -5z m-1983 -49 c-18 -20
-40 -17 -40 6 0 26 32 44 43 24 5 -9 4 -21 -3 -30z m1330 15 c0 -6 -4 -7 -10
-4 -5 3 -10 11 -10 16 0 6 5 7 10 4 6 -3 10 -11 10 -16z m-1023 -11 c-3 -8 -6
-5 -6 6 -1 11 2 17 5 13 3 -3 4 -12 1 -19z m1388 -16 c-3 -3 -11 0 -18 7 -9
10 -8 11 6 5 10 -3 15 -9 12 -12z m-1648 -8 c3 -9 12 -13 21 -9 14 5 14 3 -1
-12 -25 -29 -85 -47 -102 -33 -8 7 -12 16 -9 22 3 5 12 4 20 -3 10 -8 14 -8
15 0 3 20 4 26 12 39 11 17 36 15 44 -4z m1453 6 c0 -5 -7 -10 -16 -10 -8 0
-12 5 -9 10 3 6 10 10 16 10 5 0 9 -4 9 -10z m80 -13 c0 7 7 10 15 7 20 -8 18
-16 -9 -36 -22 -16 -23 -16 -23 13 0 19 3 25 9 17 6 -10 8 -10 8 -1z m-363
-29 c-3 -7 -5 -2 -5 12 0 14 2 19 5 13 2 -7 2 -19 0 -25z m263 18 c0 -11 -19
-15 -25 -6 -3 5 1 10 9 10 9 0 16 -2 16 -4z m480 -21 c-7 -9 -15 -13 -18 -10
-3 2 1 11 8 20 7 9 15 13 18 10 3 -2 -1 -11 -8 -20z m-610 7 c0 -4 -9 -13 -21
-20 -19 -12 -19 -11 -9 8 10 19 30 28 30 12z m45 -2 c3 -5 1 -10 -4 -10 -6 0
-11 5 -11 10 0 6 2 10 4 10 3 0 8 -4 11 -10z m504 -31 c-7 -4 -16 -5 -19 -2
-3 3 1 8 8 10 6 3 13 12 13 21 1 14 2 13 6 -2 3 -10 -1 -22 -8 -27z m626 10
c-4 -5 1 -9 9 -9 23 0 20 -17 -4 -23 -17 -4 -20 0 -20 25 0 17 4 27 10 23 6
-4 8 -11 5 -16z m-2715 -25 c-11 -20 -12 -29 -2 -45 7 -11 8 -19 2 -19 -5 0
-10 5 -10 10 0 6 -9 10 -20 10 -24 0 -25 3 -3 38 31 48 58 54 33 6z m144 1
c-4 -8 -10 -12 -15 -9 -14 8 -10 24 6 24 9 0 12 -6 9 -15z m1266 11 c0 -3 -4
-8 -10 -11 -5 -3 -10 -1 -10 4 0 6 5 11 10 11 6 0 10 -2 10 -4z m1265 -6 c3
-5 -1 -10 -9 -10 -9 0 -16 5 -16 10 0 6 4 10 9 10 6 0 13 -4 16 -10z m-855 -4
c0 -3 -4 -8 -10 -11 -5 -3 -10 -1 -10 4 0 6 5 11 10 11 6 0 10 -2 10 -4z
m-167 -12 c8 -8 -3 -34 -14 -34 -5 0 -9 9 -9 20 0 19 11 26 23 14z m-1569 -25
c-3 -5 -10 -7 -15 -3 -5 3 -7 10 -3 15 3 5 10 7 15 3 5 -3 7 -10 3 -15z m210
5 c3 -8 2 -12 -4 -9 -6 3 -10 10 -10 16 0 14 7 11 14 -7z m1431 6 c3 -6 -1 -7
-9 -4 -18 7 -21 14 -7 14 6 0 13 -4 16 -10z m-128 -16 c-3 -3 -12 -4 -19 -1
-8 3 -5 6 6 6 11 1 17 -2 13 -5z m208 -4 c3 -6 -1 -7 -9 -4 -18 7 -21 14 -7
14 6 0 13 -4 16 -10z m2726 -21 l24 -20 -30 17 c-39 24 -40 24 -28 24 6 0 21
-9 34 -21z m-3121 -9 c0 -5 -4 -10 -10 -10 -5 0 -10 5 -10 10 0 6 5 10 10 10
6 0 10 -4 10 -10z"/>
<path d="M6062 3314 c12 -11 88 -15 88 -4 0 5 -21 10 -47 10 -25 0 -44 -3 -41
-6z"/>
<path d="M4686 2253 c-4 -5 -22 -13 -39 -20 l-32 -11 36 -1 c25 -1 39 4 43 15
7 19 3 28 -8 17z"/>
<path d="M1840 1251 c0 -6 5 -13 10 -16 6 -3 10 1 10 9 0 9 -4 16 -10 16 -5 0
-10 -4 -10 -9z"/>
<path d="M1585 1349 c-10 -15 3 -25 16 -12 7 7 7 13 1 17 -6 3 -14 1 -17 -5z"/>
<path d="M1507 1183 c-8 -12 30 -29 40 -19 4 3 -1 6 -9 6 -9 0 -18 5 -20 12
-3 9 -6 9 -11 1z"/>
<path d="M1360 1032 c0 -10 11 -24 25 -30 35 -16 37 -15 29 11 -8 27 -4 23
-31 31 -18 6 -23 3 -23 -12z"/>
<path d="M1138 1003 c7 -3 16 -2 19 1 4 3 -2 6 -13 5 -11 0 -14 -3 -6 -6z"/>
<path d="M1377 933 c-4 -3 -7 -15 -7 -25 0 -26 24 -17 28 10 3 21 -8 29 -21
15z"/>
<path d="M2090 1310 c0 -5 5 -10 11 -10 5 0 7 5 4 10 -3 6 -8 10 -11 10 -2 0
-4 -4 -4 -10z"/>
<path d="M1278 733 c7 -3 16 -2 19 1 4 3 -2 6 -13 5 -11 0 -14 -3 -6 -6z"/>
<path d="M1905 250 c3 -5 8 -10 11 -10 2 0 4 5 4 10 0 6 -5 10 -11 10 -5 0 -7
-4 -4 -10z"/>
<path d="M6372 4538 c-17 -17 -15 -43 8 -85 l20 -38 0 68 c0 67 -5 78 -28 55z"/>
<path d="M2499 3389 c16 -6 28 -6 35 1 7 7 -1 10 -24 9 -33 0 -34 -1 -11 -10z"/>
<path d="M2629 3379 c-10 -6 -4 -9 19 -9 17 0 32 2 32 4 0 9 -39 13 -51 5z"/>
<path d="M2485 3360 c28 -12 45 -12 45 0 0 6 -15 10 -32 9 -28 0 -30 -2 -13
-9z"/>
<path d="M4130 3199 c0 -5 5 -7 10 -4 6 3 10 8 10 11 0 2 -4 4 -10 4 -5 0 -10
-5 -10 -11z"/>
<path d="M3790 3000 c-8 -5 -12 -12 -8 -15 9 -9 59 6 52 16 -7 12 -25 11 -44
-1z"/>
<path d="M3735 2830 c-3 -5 -2 -10 4 -10 5 0 13 5 16 10 3 6 2 10 -4 10 -5 0
-13 -4 -16 -10z"/>
<path d="M1506 2761 c-7 -11 22 -23 35 -15 5 3 7 10 4 15 -8 12 -32 12 -39 0z"/>
<path d="M2980 2370 c0 -5 7 -10 16 -10 8 0 12 5 9 10 -3 6 -10 10 -16 10 -5
0 -9 -4 -9 -10z"/>
<path d="M2686 2285 c-4 -13 -2 -14 14 -5 23 13 26 20 6 20 -8 0 -16 -7 -20
-15z"/>
<path d="M3210 2280 c0 -5 5 -10 10 -10 6 0 10 5 10 10 0 6 -4 10 -10 10 -5 0
-10 -4 -10 -10z"/>
<path d="M3545 2180 c3 -5 11 -10 16 -10 6 0 7 5 4 10 -3 6 -11 10 -16 10 -6
0 -7 -4 -4 -10z"/>
<path d="M3580 2181 c0 -6 3 -11 8 -12 4 0 21 -3 37 -5 20 -4 27 -2 20 5 -16
15 -65 25 -65 12z"/>
<path d="M3680 2170 c-9 -16 -8 -18 5 -14 8 4 15 12 15 20 0 20 -7 17 -20 -6z"/>
<path d="M2823 2154 c-5 -13 -7 -13 -14 -2 -6 9 -9 6 -9 -10 0 -13 4 -21 9
-17 5 3 12 1 16 -5 12 -20 25 -10 25 20 0 32 -17 41 -27 14z"/>
<path d="M3570 2110 c0 -12 8 -12 35 0 18 8 17 9 -7 9 -16 1 -28 -3 -28 -9z"/>
<path d="M3760 2110 c0 -5 5 -10 10 -10 6 0 10 5 10 10 0 6 -4 10 -10 10 -5 0
-10 -4 -10 -10z"/>
<path d="M4347 2079 c7 -7 15 -10 18 -7 3 3 -2 9 -12 12 -14 6 -15 5 -6 -5z"/>
<path d="M4514 1998 c-5 -8 -2 -9 9 -5 10 4 20 0 26 -11 6 -9 11 -12 11 -6 0
11 -20 34 -31 34 -4 0 -11 -5 -15 -12z"/>
<path d="M4310 1940 c-28 -22 -24 -25 14 -10 14 5 26 14 26 20 0 15 -12 12
-40 -10z"/>
<path d="M4561 1944 c0 -11 3 -14 6 -6 3 7 2 16 -1 19 -3 4 -6 -2 -5 -13z"/>
<path d="M4410 1932 c0 -12 19 -26 26 -19 2 2 -2 10 -11 17 -9 8 -15 8 -15 2z"/>
<path d="M4150 1900 c-9 -6 -10 -10 -3 -10 6 0 15 5 18 10 8 12 4 12 -15 0z"/>
<path d="M4360 1901 c0 -10 19 -25 25 -20 1 2 -3 10 -11 17 -8 7 -14 8 -14 3z"/>
<path d="M4258 1873 c-21 -5 -22 -12 -8 -47 9 -24 7 -26 -16 -26 -16 0 -24 -5
-21 -12 2 -7 10 -12 16 -10 6 1 11 -4 11 -12 0 -10 7 -12 22 -8 15 4 19 2 13
-7 -5 -9 -2 -12 9 -9 10 1 25 17 34 33 9 17 20 32 25 33 13 6 7 23 -7 20 -8
-2 -15 0 -15 5 -2 24 1 28 19 22 11 -3 20 -2 20 4 0 18 -41 23 -59 7 -22 -20
-32 -20 -25 -1 4 8 5 14 3 14 -2 -1 -12 -3 -21 -6z"/>
<path d="M4085 1840 c-8 -13 5 -13 25 0 13 8 13 10 -2 10 -9 0 -20 -4 -23 -10z"/>
<path d="M3217 1783 c-3 -5 6 -16 21 -23 27 -12 27 -12 5 -21 -27 -10 -28 -13
-8 -32 11 -11 24 -13 52 -7 41 10 73 -2 73 -26 0 -12 4 -12 20 -4 11 6 20 16
20 23 0 8 -4 7 -11 -3 -8 -11 -9 -7 -5 18 l6 33 -51 -2 c-39 -2 -55 2 -64 14
-7 9 -19 17 -28 17 -8 0 -17 5 -19 12 -3 8 -6 9 -11 1z"/>
<path d="M4070 1770 c-15 -5 -19 -9 -10 -11 8 -1 20 -3 25 -4 6 -2 20 -3 33
-4 19 -1 22 -5 17 -28 -5 -24 -5 -25 5 -10 8 12 18 16 31 12 28 -9 23 4 -6 15
-14 5 -25 16 -25 25 0 16 -28 18 -70 5z"/>
<path d="M3475 1752 c-5 -4 -11 -21 -11 -39 -2 -29 0 -31 17 -20 21 13 24 23
8 32 -6 5 -4 12 8 21 14 10 15 13 3 14 -8 0 -19 -4 -25 -8z"/>
<path d="M4010 1750 c0 -5 4 -10 9 -10 5 0 18 -3 28 -7 17 -6 17 -6 1 10 -18
19 -38 22 -38 7z"/>
<path d="M3410 1740 c0 -5 5 -10 10 -10 6 0 10 5 10 10 0 6 -4 10 -10 10 -5 0
-10 -4 -10 -10z"/>
<path d="M3170 1731 c0 -6 5 -13 10 -16 6 -3 10 1 10 9 0 9 -4 16 -10 16 -5 0
-10 -4 -10 -9z"/>
<path d="M3442 1720 c0 -14 2 -19 5 -12 2 6 2 18 0 25 -3 6 -5 1 -5 -13z"/>
<path d="M4230 1701 c0 -18 18 -21 30 -6 10 13 9 15 -9 15 -11 0 -21 -4 -21
-9z"/>
<path d="M1020 1694 c0 -23 53 -46 86 -38 35 9 29 19 -13 22 -21 1 -42 7 -47
12 -11 11 -26 13 -26 4z"/>
<path d="M3731 1644 c0 -11 3 -14 6 -6 3 7 2 16 -1 19 -3 4 -6 -2 -5 -13z"/>
<path d="M360 1625 c-17 -20 -12 -24 46 -32 28 -3 56 -14 65 -25 21 -23 42
-23 37 -1 -2 11 -18 21 -43 27 -22 5 -52 17 -66 27 -24 17 -28 17 -39 4z"/>
<path d="M3820 1620 c0 -5 5 -10 10 -10 6 0 10 5 10 10 0 6 -4 10 -10 10 -5 0
-10 -4 -10 -10z"/>
<path d="M3958 1603 c7 -3 16 -2 19 1 4 3 -2 6 -13 5 -11 0 -14 -3 -6 -6z"/>
<path d="M3825 1590 c3 -5 11 -10 16 -10 6 0 7 5 4 10 -3 6 -11 10 -16 10 -6
0 -7 -4 -4 -10z"/>
<path d="M516 1535 c-3 -8 -13 -15 -21 -15 -9 0 -13 -5 -10 -10 4 -6 14 -10
23 -9 10 1 29 -3 44 -9 15 -6 51 -14 80 -18 29 -4 66 -13 81 -21 16 -8 33 -13
39 -11 6 2 -6 12 -28 22 -21 9 -47 21 -56 26 -10 6 -24 10 -32 10 -9 0 -32 11
-52 25 -42 29 -59 31 -68 10z"/>
<path d="M3348 1529 c-2 -7 -25 -13 -50 -14 -26 -2 -52 -6 -59 -10 -8 -5 -10
-4 -5 3 4 7 1 12 -6 12 -17 0 -47 -20 -31 -20 6 0 12 -10 11 -22 0 -31 -19
-68 -33 -68 -7 0 -12 -10 -11 -22 1 -13 -2 -26 -7 -29 -11 -8 3 -60 14 -53 6
3 7 14 4 25 -4 12 -1 21 9 25 9 3 13 11 9 17 -3 6 -1 7 6 3 6 -4 18 -2 26 4 8
6 19 9 24 6 5 -4 12 -2 15 3 3 5 22 12 41 15 32 6 50 26 23 26 -6 0 -3 6 7 14
13 9 19 27 20 55 1 42 -1 49 -7 30z m-54 -64 c-3 -8 -14 -17 -25 -20 -11 -4
-17 -11 -14 -16 8 -11 -23 -24 -33 -14 -4 4 9 20 28 36 38 32 52 37 44 14z"/>
<path d="M3386 1533 c-3 -3 -3 -10 0 -14 7 -12 34 -11 34 0 0 11 -26 22 -34
14z"/>
<path d="M78 1523 c7 -3 16 -2 19 1 4 3 -2 6 -13 5 -11 0 -14 -3 -6 -6z"/>
<path d="M417 1499 c-4 -16 -3 -18 9 -8 16 13 19 29 5 29 -5 0 -11 -9 -14 -21z"/>
<path d="M3426 1503 c-11 -11 -6 -21 9 -19 22 3 28 13 11 19 -8 3 -17 3 -20 0z"/>
<path d="M3875 1470 c-4 -6 7 -10 27 -9 27 0 30 2 13 9 -27 12 -33 12 -40 0z"/>
<path d="M3396 1453 c-6 -14 -5 -15 5 -6 7 7 10 15 7 18 -3 3 -9 -2 -12 -12z"/>
<path d="M601 1436 c12 -10 60 -16 54 -6 -3 5 -18 10 -32 10 -15 0 -24 -2 -22
-4z"/>
<path d="M274 1408 c-3 -5 -4 -10 -3 -11 2 -1 14 -7 26 -14 17 -10 24 -9 32 0
7 10 3 16 -19 24 -19 7 -32 8 -36 1z"/>
<path d="M2991 1404 c0 -11 3 -14 6 -6 3 7 2 16 -1 19 -3 4 -6 -2 -5 -13z"/>
<path d="M160 1400 c0 -5 7 -10 15 -10 8 0 15 5 15 10 0 6 -7 10 -15 10 -8 0
-15 -4 -15 -10z"/>
<path d="M3080 1395 c-10 -12 -9 -16 3 -21 20 -7 37 3 37 22 0 18 -24 18 -40
-1z"/>
<path d="M3256 1349 c-11 -10 -15 -19 -9 -19 5 0 18 9 28 20 23 26 6 25 -19
-1z"/>
<path d="M298 1353 c7 -3 16 -2 19 1 4 3 -2 6 -13 5 -11 0 -14 -3 -6 -6z"/>
<path d="M3048 1313 c-3 -12 0 -20 8 -20 16 0 17 6 5 25 -6 11 -9 9 -13 -5z"/>
<path d="M3226 1264 c-10 -25 1 -29 14 -5 6 12 7 21 1 21 -5 0 -12 -7 -15 -16z"/>
<path d="M2974 1235 c-8 -19 3 -35 24 -35 15 0 15 2 2 10 -13 8 -12 10 3 10
14 0 16 -5 11 -27 -6 -23 -5 -25 12 -19 33 14 49 12 48 -6 -1 -10 2 -18 7 -18
5 0 9 4 9 9 0 6 15 24 33 41 l32 30 -27 -2 c-16 -1 -28 -6 -28 -10 0 -13 -24
-9 -65 12 -47 24 -54 24 -61 5z"/>
<path d="M125 1230 c-3 -5 1 -10 9 -10 9 0 16 5 16 10 0 6 -4 10 -9 10 -6 0
-13 -4 -16 -10z"/>
<path d="M780 1230 c-8 -5 -12 -12 -9 -15 4 -3 12 1 19 10 14 17 11 19 -10 5z"/>
<path d="M2896 1211 c-12 -19 7 -41 34 -41 16 0 31 -6 34 -12 3 -7 2 1 -1 17
-3 17 -11 33 -17 37 -15 11 -44 10 -50 -1z"/>
<path d="M88 1193 c6 -2 18 -2 25 0 6 3 1 5 -13 5 -14 0 -19 -2 -12 -5z"/>
<path d="M20 1171 c0 -5 11 -11 25 -13 20 -4 23 -3 14 8 -13 16 -39 19 -39 5z"/>
<path d="M2990 1149 c0 -5 5 -7 10 -4 6 3 10 8 10 11 0 2 -4 4 -10 4 -5 0 -10
-5 -10 -11z"/>
<path d="M2 1133 c2 -11 14 -19 31 -21 31 -4 36 12 8 28 -29 15 -43 12 -39 -7z"/>
<path d="M608 1113 c7 -3 16 -2 19 1 4 3 -2 6 -13 5 -11 0 -14 -3 -6 -6z"/>
<path d="M353 1065 c-9 -25 2 -27 22 -5 17 18 17 20 1 20 -9 0 -19 -7 -23 -15z"/>
<path d="M660 1070 c0 -5 7 -10 15 -10 8 0 15 5 15 10 0 6 -7 10 -15 10 -8 0
-15 -4 -15 -10z"/>
<path d="M200 1059 c0 -5 5 -7 10 -4 6 3 10 8 10 11 0 2 -4 4 -10 4 -5 0 -10
-5 -10 -11z"/>
<path d="M283 1057 c-13 -5 -23 -14 -23 -19 0 -15 40 -9 47 7 8 22 2 24 -24
12z"/>
<path d="M775 1050 c-3 -5 -2 -10 4 -10 5 0 13 5 16 10 3 6 2 10 -4 10 -5 0
-13 -4 -16 -10z"/>
<path d="M98 1043 c-18 -5 -25 -33 -9 -33 21 0 41 13 41 26 0 14 -3 15 -32 7z"/>
<path d="M665 1040 c3 -5 10 -10 16 -10 5 0 9 5 9 10 0 6 -7 10 -16 10 -8 0
-12 -4 -9 -10z"/>
<path d="M0 982 c0 -17 52 -12 58 6 3 8 -6 12 -27 10 -18 -1 -31 -8 -31 -16z"/>
<path d="M97 993 c-14 -13 -6 -23 18 -23 28 0 34 15 9 24 -19 7 -19 7 -27 -1z"/>
<path d="M195 935 c22 -14 46 -23 53 -20 8 3 18 5 23 5 5 0 9 5 9 10 0 6 -15
10 -34 10 -19 0 -38 5 -41 10 -3 6 -16 10 -28 10 -18 -1 -15 -5 18 -25z"/>
<path d="M7 933 c-4 -3 -7 -18 -7 -32 0 -33 49 -61 63 -36 4 8 17 15 28 15 11
0 18 4 14 9 -3 5 -1 12 5 16 23 14 9 27 -24 21 -20 -4 -37 -2 -41 4 -7 11 -28
13 -38 3z m23 -33 c0 -5 -2 -10 -4 -10 -3 0 -8 5 -11 10 -3 6 -1 10 4 10 6 0
11 -4 11 -10z"/>
<path d="M150 869 c-13 -8 -13 -10 0 -19 21 -14 30 -12 30 4 0 20 -13 27 -30
15z"/>
<path d="M198 823 c7 -3 16 -2 19 1 4 3 -2 6 -13 5 -11 0 -14 -3 -6 -6z"/>
<path d="M260 810 c0 -5 5 -10 10 -10 6 0 10 5 10 10 0 6 -4 10 -10 10 -5 0
-10 -4 -10 -10z"/>
<path d="M98 783 c7 -3 16 -2 19 1 4 3 -2 6 -13 5 -11 0 -14 -3 -6 -6z"/>
<path d="M410 710 c0 -5 5 -10 10 -10 6 0 10 5 10 10 0 6 -4 10 -10 10 -5 0
-10 -4 -10 -10z"/>
<path d="M270 681 c0 -11 49 -21 55 -11 5 9 -18 20 -41 20 -8 0 -14 -4 -14 -9z"/>
<path d="M1020 621 c0 -5 5 -13 10 -16 6 -3 10 -2 10 4 0 5 -4 13 -10 16 -5 3
-10 2 -10 -4z"/>
<path d="M1152 598 c5 -15 28 -23 28 -10 0 5 -7 13 -16 16 -10 4 -14 1 -12 -6z"/>
<path d="M1121 581 c-8 -5 -10 -14 -6 -21 6 -9 10 -8 17 4 12 21 7 28 -11 17z"/>
<path d="M1031 548 c-1 -11 -6 -15 -15 -12 -19 7 -32 -16 -15 -26 15 -10 43
24 36 43 -3 7 -6 5 -6 -5z"/>
<path d="M1678 398 c5 -5 16 -8 23 -6 8 3 3 7 -10 11 -17 4 -21 3 -13 -5z"/>
<path d="M1620 380 c0 -5 5 -10 11 -10 5 0 7 5 4 10 -3 6 -8 10 -11 10 -2 0
-4 -4 -4 -10z"/>
<path d="M1455 340 c-3 -5 -1 -10 4 -10 6 0 11 5 11 10 0 6 -2 10 -4 10 -3 0
-8 -4 -11 -10z"/>
<path d="M139 214 c-11 -14 -10 -15 11 -12 13 1 25 9 28 16 5 17 -23 15 -39
-4z"/>
<path d="M5290 15 c0 -8 2 -15 4 -15 2 0 6 7 10 15 3 8 1 15 -4 15 -6 0 -10
-7 -10 -15z"/>
</g>
</svg>
