<svg width="43" height="37" viewBox="0 0 43 37" fill="none" xmlns="http://www.w3.org/2000/svg">
<g id="Group 25">
<g id="Group 24">
<path id="Vector 1" d="M23.7745 26.25C23.6495 24.25 22.612 19.9125 20.212 19.3125" stroke="#8A9B6E" stroke-width="0.375"/>
<g id="leaf">
<path id="Ellipse 4" d="M3.46399 9.68772C3.46399 9.68772 8.30871 17.8434 11.739 19.8238C15.1692 21.8043 18.2898 22.8211 20.2703 19.3909C22.2508 15.9606 20.5971 13.2467 17.1668 11.2662C13.7366 9.28578 3.46399 9.68772 3.46399 9.68772Z" fill="#567361"/>
<g id="Mask group">
<mask id="mask0_4246_58" style="mask-type:alpha" maskUnits="userSpaceOnUse" x="0" y="9" width="27" height="19">
<path id="Rectangle 40" d="M26.4692 22.9711L2.82897 9.3224L9.52801e-06 13.935L23.6403 27.5837L26.4692 22.9711Z" fill="#D9D9D9"/>
</mask>
<g mask="url(#mask0_4246_58)">
<path id="Ellipse 5" d="M3.37956 9.65297C3.37956 9.65297 8.23118 17.8755 11.6778 19.8654C15.1244 21.8553 18.2623 22.8729 20.266 19.4023C22.2697 15.9318 20.6134 13.1958 17.1668 11.2059C13.7202 9.21598 3.37956 9.65297 3.37956 9.65297Z" fill="#354733"/>
</g>
</g>
</g>
</g>
<g id="Group 23">
<path id="Vector 1_2" d="M25.0781 26.4375C25.1719 24.9375 25.95 21.6844 27.75 21.2344" stroke="#8A9B6E" stroke-width="0.28125"/>
<g id="leaf_2">
<path id="Ellipse 4_2" d="M40.311 14.0158C40.311 14.0158 36.6775 20.1325 34.1048 21.6178C31.5321 23.1032 29.1916 23.8658 27.7063 21.2931C26.2209 18.7204 27.4612 16.685 30.0339 15.1997C32.6066 13.7143 40.311 14.0158 40.311 14.0158Z" fill="#587462"/>
<g id="Mask group_2">
<mask id="mask1_4246_58" style="mask-type:alpha" maskUnits="userSpaceOnUse" x="23" y="13" width="20" height="15">
<path id="Rectangle 40_2" d="M23.0571 23.9783L40.7873 13.7418L42.909 17.2012L25.1788 27.4378L23.0571 23.9783Z" fill="#D9D9D9"/>
</mask>
<g mask="url(#mask1_4246_58)">
<path id="Ellipse 5_2" d="M40.3743 13.9897C40.3743 13.9897 36.7356 20.1566 34.1507 21.649C31.5657 23.1415 29.2123 23.9046 27.7095 21.3017C26.2067 18.6988 27.4489 16.6468 30.0339 15.1544C32.6188 13.662 40.3743 13.9897 40.3743 13.9897Z" fill="#354733"/>
</g>
</g>
</g>
<path id="Vector 2" d="M24.5 26C24.375 24 24.5 15.25 24.5 15.25" stroke="#8A9B6E" stroke-width="0.375"/>
<g id="leaf_3">
<path id="Ellipse 4_3" d="M24.6133 1.15719C24.6133 1.15719 28.0937 7.36229 28.0937 10.333C28.0937 13.3037 27.584 15.7119 24.6133 15.7119C21.6426 15.7119 20.5 13.6201 20.5 10.6494C20.5 7.67869 24.6133 1.15719 24.6133 1.15719Z" fill="#8A9B6E"/>
<g id="Mask group_3">
<mask id="mask2_4246_58" style="mask-type:alpha" maskUnits="userSpaceOnUse" x="24" y="0" width="5" height="22">
<path id="Rectangle 40_3" d="M24.6141 21.0808L24.6141 0.60774L28.6709 0.499998L28.6709 20.9731L24.6141 21.0808Z" fill="#D9D9D9"/>
</mask>
<g mask="url(#mask2_4246_58)">
<path id="Ellipse 5_3" d="M24.6224 1.08933C24.6224 1.08933 28.1437 7.32399 28.1437 10.3088C28.1437 13.2937 27.6279 15.7134 24.6224 15.7134C21.6168 15.7134 20.4608 13.6116 20.4608 10.6267C20.4608 7.6419 24.6224 1.08933 24.6224 1.08933Z" fill="#354733"/>
</g>
</g>
</g>
</g>
<rect id="Rectangle 35" x="16.875" y="25.875" width="15" height="3.75" fill="#D54B01"/>
<rect id="Rectangle 38" x="16.875" y="36" width="15" height="0.75" fill="#D54B01"/>
<path id="Rectangle 36" d="M18.375 29.625H30.375L30 32.25H18.75L18.375 29.625Z" fill="#4C210D"/>
<path id="Rectangle 39" d="M19.125 32.25H29.625L29.4277 33.75H19.3559L19.125 32.25Z" fill="#D54B01"/>
<path id="Rectangle 37" d="M19.5 33.75H29.25L28.9453 36H19.8047L19.5 33.75Z" fill="#50210B"/>
</g>
</svg>
